<svg xmlns="http://www.w3.org/2000/svg" xmlns:xlink="http://www.w3.org/1999/xlink" width="500" zoomAndPan="magnify" viewBox="0 0 375 374.999991" height="500" preserveAspectRatio="xMidYMid meet" version="1.0"><defs><g/></defs><rect x="-37.5" width="450" fill="#ffffff" y="-37.499999" height="449.999989" fill-opacity="1"/><rect x="-37.5" width="450" fill="#ffffff" y="-37.499999" height="449.999989" fill-opacity="1"/><g fill="#141414" fill-opacity="1"><g transform="translate(22.042972, 196.024938)"><g><path d="M 43.15625 -27.90625 L 35.59375 0 L 26.15625 0 L 21.75 -18.09375 L 17.203125 0 L 7.796875 0 L 0.203125 -27.90625 L 8.75 -27.90625 L 12.703125 -7.953125 L 17.40625 -27.90625 L 26.453125 -27.90625 L 31.203125 -8.046875 L 35.09375 -27.90625 Z M 43.15625 -27.90625 "/></g></g></g><g fill="#141414" fill-opacity="1"><g transform="translate(65.336266, 196.024938)"><g><path d="M 29.40625 -14.40625 C 29.40625 -13.601562 29.351562 -12.769531 29.25 -11.90625 L 9.90625 -11.90625 C 10.03125 -10.164062 10.582031 -8.835938 11.5625 -7.921875 C 12.550781 -7.003906 13.765625 -6.546875 15.203125 -6.546875 C 17.335938 -6.546875 18.820312 -7.445312 19.65625 -9.25 L 28.75 -9.25 C 28.28125 -7.414062 27.4375 -5.765625 26.21875 -4.296875 C 25.007812 -2.828125 23.488281 -1.675781 21.65625 -0.84375 C 19.820312 -0.0078125 17.769531 0.40625 15.5 0.40625 C 12.769531 0.40625 10.335938 -0.175781 8.203125 -1.34375 C 6.066406 -2.507812 4.398438 -4.175781 3.203125 -6.34375 C 2.003906 -8.507812 1.40625 -11.046875 1.40625 -13.953125 C 1.40625 -16.847656 1.992188 -19.378906 3.171875 -21.546875 C 4.359375 -23.710938 6.015625 -25.378906 8.140625 -26.546875 C 10.273438 -27.710938 12.726562 -28.296875 15.5 -28.296875 C 18.195312 -28.296875 20.59375 -27.726562 22.6875 -26.59375 C 24.789062 -25.46875 26.4375 -23.851562 27.625 -21.75 C 28.8125 -19.644531 29.40625 -17.195312 29.40625 -14.40625 Z M 20.65625 -16.65625 C 20.65625 -18.113281 20.15625 -19.273438 19.15625 -20.140625 C 18.15625 -21.015625 16.90625 -21.453125 15.40625 -21.453125 C 13.96875 -21.453125 12.753906 -21.035156 11.765625 -20.203125 C 10.785156 -19.367188 10.179688 -18.1875 9.953125 -16.65625 Z M 20.65625 -16.65625 "/></g></g></g><g fill="#141414" fill-opacity="1"><g transform="translate(96.131502, 196.024938)"><g><path d="M 11.65625 -23.953125 C 12.445312 -25.253906 13.59375 -26.300781 15.09375 -27.09375 C 16.59375 -27.894531 18.3125 -28.296875 20.25 -28.296875 C 22.550781 -28.296875 24.632812 -27.710938 26.5 -26.546875 C 28.363281 -25.378906 29.835938 -23.710938 30.921875 -21.546875 C 32.003906 -19.378906 32.546875 -16.863281 32.546875 -14 C 32.546875 -11.132812 32.003906 -8.609375 30.921875 -6.421875 C 29.835938 -4.242188 28.363281 -2.5625 26.5 -1.375 C 24.632812 -0.1875 22.550781 0.40625 20.25 0.40625 C 18.28125 0.40625 16.5625 0.015625 15.09375 -0.765625 C 13.632812 -1.554688 12.488281 -2.601562 11.65625 -3.90625 L 11.65625 0 L 3.09375 0 L 3.09375 -37 L 11.65625 -37 Z M 23.84375 -14 C 23.84375 -16.132812 23.25 -17.804688 22.0625 -19.015625 C 20.882812 -20.234375 19.429688 -20.84375 17.703125 -20.84375 C 16.003906 -20.84375 14.5625 -20.226562 13.375 -19 C 12.1875 -17.769531 11.59375 -16.085938 11.59375 -13.953125 C 11.59375 -11.816406 12.1875 -10.128906 13.375 -8.890625 C 14.5625 -7.660156 16.003906 -7.046875 17.703125 -7.046875 C 19.398438 -7.046875 20.847656 -7.671875 22.046875 -8.921875 C 23.242188 -10.171875 23.84375 -11.863281 23.84375 -14 Z M 23.84375 -14 "/></g></g></g><g fill="#141414" fill-opacity="1"><g transform="translate(130.076244, 196.024938)"><g><path d="M 14.453125 0.40625 C 12.015625 0.40625 9.84375 -0.0078125 7.9375 -0.84375 C 6.039062 -1.675781 4.539062 -2.816406 3.4375 -4.265625 C 2.34375 -5.722656 1.726562 -7.351562 1.59375 -9.15625 L 10.046875 -9.15625 C 10.148438 -8.1875 10.597656 -7.398438 11.390625 -6.796875 C 12.191406 -6.203125 13.175781 -5.90625 14.34375 -5.90625 C 15.414062 -5.90625 16.242188 -6.113281 16.828125 -6.53125 C 17.410156 -6.945312 17.703125 -7.488281 17.703125 -8.15625 C 17.703125 -8.945312 17.285156 -9.535156 16.453125 -9.921875 C 15.617188 -10.304688 14.269531 -10.734375 12.40625 -11.203125 C 10.40625 -11.671875 8.738281 -12.160156 7.40625 -12.671875 C 6.070312 -13.191406 4.921875 -14.007812 3.953125 -15.125 C 2.984375 -16.238281 2.5 -17.75 2.5 -19.65625 C 2.5 -21.25 2.941406 -22.703125 3.828125 -24.015625 C 4.710938 -25.335938 6.007812 -26.378906 7.71875 -27.140625 C 9.4375 -27.910156 11.476562 -28.296875 13.84375 -28.296875 C 17.34375 -28.296875 20.101562 -27.425781 22.125 -25.6875 C 24.144531 -23.957031 25.300781 -21.660156 25.59375 -18.796875 L 17.703125 -18.796875 C 17.566406 -19.765625 17.140625 -20.53125 16.421875 -21.09375 C 15.703125 -21.664062 14.757812 -21.953125 13.59375 -21.953125 C 12.59375 -21.953125 11.828125 -21.757812 11.296875 -21.375 C 10.765625 -20.988281 10.5 -20.460938 10.5 -19.796875 C 10.5 -18.992188 10.921875 -18.394531 11.765625 -18 C 12.617188 -17.601562 13.945312 -17.203125 15.75 -16.796875 C 17.8125 -16.265625 19.492188 -15.738281 20.796875 -15.21875 C 22.097656 -14.707031 23.238281 -13.875 24.21875 -12.71875 C 25.207031 -11.570312 25.71875 -10.03125 25.75 -8.09375 C 25.75 -6.46875 25.289062 -5.007812 24.375 -3.71875 C 23.457031 -2.4375 22.140625 -1.425781 20.421875 -0.6875 C 18.703125 0.0390625 16.710938 0.40625 14.453125 0.40625 Z M 14.453125 0.40625 "/></g></g></g><g fill="#141414" fill-opacity="1"><g transform="translate(157.971926, 196.024938)"><g><path d="M 7.40625 -30.796875 C 5.90625 -30.796875 4.675781 -31.238281 3.71875 -32.125 C 2.769531 -33.007812 2.296875 -34.101562 2.296875 -35.40625 C 2.296875 -36.738281 2.769531 -37.84375 3.71875 -38.71875 C 4.675781 -39.601562 5.90625 -40.046875 7.40625 -40.046875 C 8.863281 -40.046875 10.066406 -39.601562 11.015625 -38.71875 C 11.972656 -37.84375 12.453125 -36.738281 12.453125 -35.40625 C 12.453125 -34.101562 11.972656 -33.007812 11.015625 -32.125 C 10.066406 -31.238281 8.863281 -30.796875 7.40625 -30.796875 Z M 11.65625 -27.90625 L 11.65625 0 L 3.09375 0 L 3.09375 -27.90625 Z M 11.65625 -27.90625 "/></g></g></g><g fill="#141414" fill-opacity="1"><g transform="translate(172.71964, 196.024938)"><g><path d="M 18.65625 -7.25 L 18.65625 0 L 14.296875 0 C 11.203125 0 8.785156 -0.753906 7.046875 -2.265625 C 5.316406 -3.785156 4.453125 -6.265625 4.453125 -9.703125 L 4.453125 -20.796875 L 1.046875 -20.796875 L 1.046875 -27.90625 L 4.453125 -27.90625 L 4.453125 -34.703125 L 13 -34.703125 L 13 -27.90625 L 18.59375 -27.90625 L 18.59375 -20.796875 L 13 -20.796875 L 13 -9.59375 C 13 -8.757812 13.195312 -8.160156 13.59375 -7.796875 C 14 -7.429688 14.664062 -7.25 15.59375 -7.25 Z M 18.65625 -7.25 "/></g></g></g><g fill="#141414" fill-opacity="1"><g transform="translate(193.016502, 196.024938)"><g><path d="M 29.40625 -14.40625 C 29.40625 -13.601562 29.351562 -12.769531 29.25 -11.90625 L 9.90625 -11.90625 C 10.03125 -10.164062 10.582031 -8.835938 11.5625 -7.921875 C 12.550781 -7.003906 13.765625 -6.546875 15.203125 -6.546875 C 17.335938 -6.546875 18.820312 -7.445312 19.65625 -9.25 L 28.75 -9.25 C 28.28125 -7.414062 27.4375 -5.765625 26.21875 -4.296875 C 25.007812 -2.828125 23.488281 -1.675781 21.65625 -0.84375 C 19.820312 -0.0078125 17.769531 0.40625 15.5 0.40625 C 12.769531 0.40625 10.335938 -0.175781 8.203125 -1.34375 C 6.066406 -2.507812 4.398438 -4.175781 3.203125 -6.34375 C 2.003906 -8.507812 1.40625 -11.046875 1.40625 -13.953125 C 1.40625 -16.847656 1.992188 -19.378906 3.171875 -21.546875 C 4.359375 -23.710938 6.015625 -25.378906 8.140625 -26.546875 C 10.273438 -27.710938 12.726562 -28.296875 15.5 -28.296875 C 18.195312 -28.296875 20.59375 -27.726562 22.6875 -26.59375 C 24.789062 -25.46875 26.4375 -23.851562 27.625 -21.75 C 28.8125 -19.644531 29.40625 -17.195312 29.40625 -14.40625 Z M 20.65625 -16.65625 C 20.65625 -18.113281 20.15625 -19.273438 19.15625 -20.140625 C 18.15625 -21.015625 16.90625 -21.453125 15.40625 -21.453125 C 13.96875 -21.453125 12.753906 -21.035156 11.765625 -20.203125 C 10.785156 -19.367188 10.179688 -18.1875 9.953125 -16.65625 Z M 20.65625 -16.65625 "/></g></g></g><g fill="#141414" fill-opacity="1"><g transform="translate(223.811727, 196.024938)"><g><path d="M 7.09375 0.40625 C 5.59375 0.40625 4.367188 -0.0351562 3.421875 -0.921875 C 2.472656 -1.804688 2 -2.898438 2 -4.203125 C 2 -5.535156 2.472656 -6.648438 3.421875 -7.546875 C 4.367188 -8.453125 5.59375 -8.90625 7.09375 -8.90625 C 8.5625 -8.90625 9.769531 -8.453125 10.71875 -7.546875 C 11.675781 -6.648438 12.15625 -5.535156 12.15625 -4.203125 C 12.15625 -2.898438 11.675781 -1.804688 10.71875 -0.921875 C 9.769531 -0.0351562 8.5625 0.40625 7.09375 0.40625 Z M 7.09375 0.40625 "/></g></g></g><g fill="#141414" fill-opacity="1"><g transform="translate(237.909543, 196.024938)"><g><path d="M 1.40625 -13.953125 C 1.40625 -16.847656 1.992188 -19.378906 3.171875 -21.546875 C 4.359375 -23.710938 6.007812 -25.378906 8.125 -26.546875 C 10.238281 -27.710938 12.664062 -28.296875 15.40625 -28.296875 C 18.90625 -28.296875 21.828125 -27.378906 24.171875 -25.546875 C 26.523438 -23.710938 28.066406 -21.128906 28.796875 -17.796875 L 19.703125 -17.796875 C 18.929688 -19.929688 17.445312 -21 15.25 -21 C 13.6875 -21 12.4375 -20.390625 11.5 -19.171875 C 10.5625 -17.953125 10.09375 -16.210938 10.09375 -13.953125 C 10.09375 -11.679688 10.5625 -9.9375 11.5 -8.71875 C 12.4375 -7.507812 13.6875 -6.90625 15.25 -6.90625 C 17.445312 -6.90625 18.929688 -7.96875 19.703125 -10.09375 L 28.796875 -10.09375 C 28.066406 -6.832031 26.515625 -4.265625 24.140625 -2.390625 C 21.773438 -0.523438 18.863281 0.40625 15.40625 0.40625 C 12.664062 0.40625 10.238281 -0.175781 8.125 -1.34375 C 6.007812 -2.507812 4.359375 -4.175781 3.171875 -6.34375 C 1.992188 -8.507812 1.40625 -11.046875 1.40625 -13.953125 Z M 1.40625 -13.953125 "/></g></g></g><g fill="#141414" fill-opacity="1"><g transform="translate(268.154856, 196.024938)"><g><path d="M 15.796875 0.40625 C 13.066406 0.40625 10.609375 -0.175781 8.421875 -1.34375 C 6.242188 -2.507812 4.53125 -4.175781 3.28125 -6.34375 C 2.03125 -8.507812 1.40625 -11.046875 1.40625 -13.953125 C 1.40625 -16.816406 2.035156 -19.335938 3.296875 -21.515625 C 4.566406 -23.703125 6.300781 -25.378906 8.5 -26.546875 C 10.695312 -27.710938 13.164062 -28.296875 15.90625 -28.296875 C 18.632812 -28.296875 21.097656 -27.710938 23.296875 -26.546875 C 25.492188 -25.378906 27.226562 -23.703125 28.5 -21.515625 C 29.769531 -19.335938 30.40625 -16.816406 30.40625 -13.953125 C 30.40625 -11.085938 29.757812 -8.5625 28.46875 -6.375 C 27.1875 -4.1875 25.4375 -2.507812 23.21875 -1.34375 C 21.007812 -0.175781 18.535156 0.40625 15.796875 0.40625 Z M 15.796875 -7 C 17.429688 -7 18.820312 -7.597656 19.96875 -8.796875 C 21.125 -9.992188 21.703125 -11.710938 21.703125 -13.953125 C 21.703125 -16.179688 21.140625 -17.894531 20.015625 -19.09375 C 18.898438 -20.300781 17.53125 -20.90625 15.90625 -20.90625 C 14.238281 -20.90625 12.851562 -20.3125 11.75 -19.125 C 10.644531 -17.9375 10.09375 -16.210938 10.09375 -13.953125 C 10.09375 -11.710938 10.632812 -9.992188 11.71875 -8.796875 C 12.800781 -7.597656 14.160156 -7 15.796875 -7 Z M 15.796875 -7 "/></g></g></g><g fill="#141414" fill-opacity="1"><g transform="translate(299.99994, 196.024938)"><g><path d="M 38.703125 -28.203125 C 42.171875 -28.203125 44.925781 -27.148438 46.96875 -25.046875 C 49.019531 -22.953125 50.046875 -20.035156 50.046875 -16.296875 L 50.046875 0 L 41.546875 0 L 41.546875 -15.15625 C 41.546875 -16.945312 41.070312 -18.332031 40.125 -19.3125 C 39.175781 -20.300781 37.867188 -20.796875 36.203125 -20.796875 C 34.535156 -20.796875 33.222656 -20.300781 32.265625 -19.3125 C 31.316406 -18.332031 30.84375 -16.945312 30.84375 -15.15625 L 30.84375 0 L 22.34375 0 L 22.34375 -15.15625 C 22.34375 -16.945312 21.867188 -18.332031 20.921875 -19.3125 C 19.972656 -20.300781 18.664062 -20.796875 17 -20.796875 C 15.332031 -20.796875 14.023438 -20.300781 13.078125 -19.3125 C 12.128906 -18.332031 11.65625 -16.945312 11.65625 -15.15625 L 11.65625 0 L 3.09375 0 L 3.09375 -27.90625 L 11.65625 -27.90625 L 11.65625 -24.40625 C 12.519531 -25.570312 13.648438 -26.492188 15.046875 -27.171875 C 16.453125 -27.859375 18.035156 -28.203125 19.796875 -28.203125 C 21.898438 -28.203125 23.773438 -27.75 25.421875 -26.84375 C 27.078125 -25.945312 28.367188 -24.664062 29.296875 -23 C 30.265625 -24.53125 31.582031 -25.78125 33.25 -26.75 C 34.914062 -27.71875 36.734375 -28.203125 38.703125 -28.203125 Z M 38.703125 -28.203125 "/></g></g></g></svg>