<?xml version="1.0" encoding="utf-8"?>
<!-- Generator: Adobe Illustrator 27.6.1, SVG Export Plug-In . SVG Version: 6.00 Build 0)  -->
<svg version="1.1" id="Layer_1" xmlns="http://www.w3.org/2000/svg" xmlns:xlink="http://www.w3.org/1999/xlink" x="0px" y="0px"
	 viewBox="0 0 512 512" style="enable-background:new 0 0 512 512;" xml:space="preserve">
<style type="text/css">
	.st0{fill:#F66035;}
	.st1{fill:#FFFFFF;}
</style>
<g>
	<path class="st0" d="M485.65,370.53H26.35C11.8,370.53,0,358.73,0,344.18V167.82c0-14.55,11.8-26.35,26.35-26.35h459.3
		c14.55,0,26.35,11.8,26.35,26.35v176.36C512,358.73,500.2,370.53,485.65,370.53z"/>
	<g>
		<path class="st1" d="M338.43,188.67v48.72c-7.86-5.77-16.52-9.18-26.99-9.18c-26.17,0-47.46,21.29-47.46,47.46
			s21.29,47.46,47.46,47.46c10.47,0,19.13-3.42,26.99-9.18v7.31h23.89v-132.6H338.43z M313.57,300.81
			c-13.86,0-25.14-11.28-25.14-25.14c0-13.86,11.28-25.14,25.14-25.14s25.14,11.28,25.14,25.14
			C338.71,289.53,327.43,300.81,313.57,300.81z"/>
		<path class="st1" d="M124.54,188.67v48.72c-7.86-5.77-16.52-9.18-26.99-9.18c-26.17,0-47.46,21.29-47.46,47.46
			s21.29,47.46,47.46,47.46c10.47,0,19.13-3.42,26.99-9.18v7.31h23.89v-132.6H124.54z M99.68,300.81
			c-13.86,0-25.14-11.28-25.14-25.14c0-13.86,11.28-25.14,25.14-25.14c13.86,0,25.14,11.28,25.14,25.14
			C124.81,289.53,113.54,300.81,99.68,300.81z"/>
		<path class="st1" d="M378.15,241.74l8.35,16.36c9.68-6.51,18.84-10.21,29.51-10.21c21.35,0,21.56,16.46,21.56,16.46
			s-11.76-0.63-21.07-0.45c-12.48,0.27-39.44,4.43-39.44,30.66c0,17.73,13.84,28.76,32.83,28.76c19.36,0,26.86-7.06,28.67-10.22
			l0.09,8.48h23.25v-53.98c0-17.82-12.03-39.77-45.32-39.77C396.43,227.85,384.12,237.13,378.15,241.74z M412.98,305.24
			c-5.43,0-14.47-1.36-14.47-11.67c0-7.51,8.95-11.49,17.91-11.67c9.68-0.18,21.17,0,21.17,0
			C437.58,298.36,423.83,305.24,412.98,305.24z"/>
		<path class="st1" d="M187.58,279.48c0,10.27,8.32,18.59,18.59,18.59h1.02c10.27,0,18.59-8.32,18.59-18.59c0-11.77,0-45.61,0-45.61
			h24.01v87.45h-23.12l-0.03-11.21c-2.53,3.65-9.87,10.95-25.74,10.95c-10.88,0-22.34-5.59-28.28-12.41
			c-5.9-6.78-8.9-16.79-8.9-29.76v-45.01h23.84L187.58,279.48L187.58,279.48z"/>
	</g>
</g>
</svg>
