<svg xmlns="http://www.w3.org/2000/svg" xmlns:xlink="http://www.w3.org/1999/xlink" width="500" zoomAndPan="magnify" viewBox="0 0 375 374.999991" height="500" preserveAspectRatio="xMidYMid meet" version="1.2"><g id="0ba502a76b"><path style=" stroke:none;fill-rule:nonzero;fill:#039be5;fill-opacity:1;" d="M 188.707031 322.84375 C 123.574219 322.84375 70.847656 270.738281 70.847656 207.464844 C 70.847656 157.21875 103.722656 112.558594 152.726562 97.671875 C 163.273438 93.949219 171.335938 70.996094 173.199219 64.171875 L 176.300781 49.90625 L 184.363281 61.691406 C 191.1875 72.238281 204.214844 92.707031 212.898438 93.949219 C 266.863281 105.113281 306.566406 152.878906 306.566406 207.464844 C 306.566406 270.738281 253.839844 322.84375 188.707031 322.84375 Z M 188.707031 322.84375 "/><path style=" stroke:none;fill-rule:nonzero;fill:#ffffff;fill-opacity:1;" d="M 222.824219 255.851562 C 226.542969 255.851562 230.886719 255.851562 233.988281 257.710938 C 237.089844 259.570312 238.949219 263.914062 239.570312 266.394531 C 240.8125 268.875 239.570312 270.117188 237.710938 271.359375 C 235.847656 272.597656 235.847656 271.976562 233.988281 268.875 C 232.128906 265.773438 230.886719 262.671875 222.203125 262.671875 C 213.519531 262.671875 211.035156 265.773438 206.695312 268.875 C 202.351562 271.976562 201.113281 273.21875 199.871094 271.359375 C 198.628906 269.496094 198.628906 267.636719 201.730469 265.15625 C 204.214844 262.671875 208.554688 258.953125 212.898438 257.089844 C 216.621094 255.230469 219.101562 255.851562 222.824219 255.851562 Z M 181.882812 283.144531 C 186.84375 286.867188 194.289062 289.96875 209.796875 289.96875 C 225.304688 289.96875 236.46875 285.625 241.433594 281.902344 C 243.914062 280.042969 244.535156 281.902344 245.152344 282.523438 C 245.152344 283.765625 245.773438 285.003906 243.914062 286.867188 C 242.671875 288.105469 231.507812 295.550781 217.859375 296.789062 C 204.832031 298.03125 186.84375 298.652344 175.679688 289.347656 C 173.816406 287.484375 174.4375 285.003906 175.679688 284.382812 C 176.917969 283.144531 178.160156 282.523438 179.402344 282.523438 C 180.640625 282.523438 181.261719 282.523438 181.882812 283.144531 Z M 126.675781 233.519531 C 126.675781 215.53125 144.664062 198.78125 167.613281 198.78125 C 196.148438 198.78125 216.621094 225.453125 230.886719 224.835938 C 243.292969 224.835938 266.863281 201.882812 278.652344 201.882812 C 291.058594 201.882812 294.160156 213.667969 294.160156 221.113281 C 294.160156 227.9375 291.675781 240.960938 285.472656 249.027344 C 279.269531 257.089844 276.167969 260.191406 268.726562 259.570312 C 260.042969 258.953125 242.050781 233.519531 230.886719 232.898438 C 216.621094 232.277344 185.605469 260.8125 161.410156 260.8125 C 146.523438 260.8125 142.183594 258.953125 137.21875 255.851562 C 130.394531 250.886719 126.675781 243.445312 126.675781 233.519531 Z M 126.675781 233.519531 "/></g></svg>