<svg xmlns="http://www.w3.org/2000/svg" xmlns:xlink="http://www.w3.org/1999/xlink" width="500" zoomAndPan="magnify" viewBox="0 0 375 374.999991" height="500" preserveAspectRatio="xMidYMid meet" version="1.2"><g id="c00b6c5408"><path style=" stroke:none;fill-rule:nonzero;fill:#039be5;fill-opacity:1;" d="M 187.476562 303.320312 C 132.1875 303.320312 87.429688 259.089844 87.429688 205.378906 C 87.429688 162.730469 115.339844 124.816406 156.9375 112.179688 C 165.890625 109.019531 172.734375 89.535156 174.3125 83.746094 L 176.945312 71.632812 L 183.792969 81.636719 C 189.582031 90.589844 200.640625 107.964844 208.011719 109.019531 C 253.824219 118.496094 287.523438 159.042969 287.523438 205.378906 C 287.523438 259.089844 242.765625 303.320312 187.476562 303.320312 Z M 187.476562 303.320312 "/><path style=" stroke:none;fill-rule:nonzero;fill:#ffffff;fill-opacity:1;" d="M 216.4375 246.453125 C 219.597656 246.453125 223.285156 246.453125 225.917969 248.03125 C 228.550781 249.613281 230.128906 253.296875 230.65625 255.40625 C 231.710938 257.511719 230.65625 258.5625 229.078125 259.617188 C 227.496094 260.671875 227.496094 260.144531 225.917969 257.511719 C 224.335938 254.878906 223.285156 252.246094 215.914062 252.246094 C 208.539062 252.246094 206.433594 254.878906 202.75 257.511719 C 199.0625 260.144531 198.007812 261.195312 196.957031 259.617188 C 195.902344 258.039062 195.902344 256.457031 198.535156 254.351562 C 200.640625 252.246094 204.328125 249.085938 208.011719 247.507812 C 211.171875 245.925781 213.277344 246.453125 216.4375 246.453125 Z M 181.683594 269.621094 C 185.898438 272.78125 192.214844 275.414062 205.378906 275.414062 C 218.542969 275.414062 228.023438 271.726562 232.234375 268.566406 C 234.34375 266.988281 234.867188 268.566406 235.394531 269.09375 C 235.394531 270.148438 235.921875 271.199219 234.339844 272.78125 C 233.289062 273.832031 223.808594 280.152344 212.226562 281.207031 C 201.167969 282.257812 185.898438 282.785156 176.417969 274.886719 C 174.839844 273.308594 175.367188 271.199219 176.417969 270.675781 C 177.472656 269.621094 178.527344 269.09375 179.578125 269.09375 C 180.632812 269.09375 181.160156 269.09375 181.683594 269.621094 Z M 134.820312 227.496094 C 134.820312 212.226562 150.089844 198.007812 169.574219 198.007812 C 193.796875 198.007812 211.171875 220.652344 223.285156 220.125 C 233.816406 220.125 253.824219 200.640625 263.828125 200.640625 C 274.359375 200.640625 276.992188 210.644531 276.992188 216.964844 C 276.992188 222.757812 274.886719 233.816406 269.621094 240.660156 C 264.355469 247.503906 261.722656 250.136719 255.402344 249.613281 C 248.03125 249.085938 232.761719 227.496094 223.285156 226.96875 C 211.171875 226.441406 184.84375 250.664062 164.308594 250.664062 C 151.671875 250.664062 147.984375 249.085938 143.773438 246.453125 C 137.980469 242.242188 134.820312 235.921875 134.820312 227.496094 Z M 134.820312 227.496094 "/></g></svg>