<svg xmlns="http://www.w3.org/2000/svg" xmlns:xlink="http://www.w3.org/1999/xlink" width="500" zoomAndPan="magnify" viewBox="0 0 375 374.999991" height="500" preserveAspectRatio="xMidYMid meet" version="1.2"><defs><clipPath id="5e937438ff"><path d="M 0 148.28125 L 375 148.28125 L 375 227.03125 L 0 227.03125 Z M 0 148.28125 "/></clipPath></defs><g id="cde5cb6bc5"><g clip-rule="nonzero" clip-path="url(#5e937438ff)"><path style=" stroke:none;fill-rule:nonzero;fill:#1bdbdb;fill-opacity:1;" d="M 76.03125 151.882812 C 66.875 146.136719 54.824219 147.507812 44.074219 154.289062 C 33.355469 147.507812 21.296875 146.136719 12.152344 151.882812 C -2.3125 160.957031 -4.070312 184.328125 8.230469 204.085938 C 17.292969 218.652344 31.472656 227.1875 44.089844 227.03125 C 56.710938 227.1875 70.886719 218.652344 79.953125 204.085938 C 92.238281 184.328125 90.496094 160.957031 76.03125 151.882812 Z M 14.878906 199.914062 C 12.328125 195.855469 10.4375 191.507812 9.203125 186.867188 C 8.105469 182.839844 7.695312 178.738281 7.972656 174.570312 C 8.519531 167.269531 11.480469 161.582031 16.304688 158.558594 C 21.128906 155.53125 27.507812 155.347656 34.296875 158.054688 C 35.316406 158.464844 36.324219 158.9375 37.324219 159.457031 C 33.535156 162.929688 30.28125 166.851562 27.574219 171.226562 C 20.105469 183.222656 17.828125 196.570312 20.433594 207.210938 C 18.351562 204.957031 16.5 202.523438 14.878906 199.914062 Z M 78.984375 186.867188 C 77.75 191.5 75.855469 195.851562 73.308594 199.910156 C 71.6875 202.523438 69.832031 204.960938 67.753906 207.222656 C 70.082031 197.683594 68.5 185.996094 62.785156 175.035156 C 62.695312 174.851562 62.570312 174.695312 62.410156 174.566406 C 62.253906 174.4375 62.074219 174.347656 61.878906 174.292969 C 61.683594 174.238281 61.484375 174.230469 61.28125 174.261719 C 61.078125 174.292969 60.894531 174.363281 60.722656 174.472656 L 42.910156 185.644531 C 42.746094 185.746094 42.609375 185.875 42.496094 186.035156 C 42.386719 186.191406 42.308594 186.367188 42.261719 186.554688 C 42.21875 186.746094 42.214844 186.933594 42.246094 187.125 C 42.277344 187.316406 42.347656 187.496094 42.449219 187.660156 L 45.0625 191.855469 C 45.164062 192.019531 45.292969 192.15625 45.449219 192.269531 C 45.609375 192.382812 45.78125 192.460938 45.96875 192.503906 C 46.15625 192.546875 46.347656 192.554688 46.535156 192.523438 C 46.726562 192.488281 46.902344 192.421875 47.066406 192.320312 L 58.613281 185.078125 C 58.984375 186.203125 59.359375 187.328125 59.640625 188.449219 C 60.734375 192.476562 61.148438 196.570312 60.875 200.734375 C 60.324219 208.03125 57.363281 213.71875 52.539062 216.746094 C 50.007812 218.304688 47.253906 219.101562 44.285156 219.148438 L 43.917969 219.148438 C 40.945312 219.105469 38.195312 218.304688 35.660156 216.746094 C 30.832031 213.71875 27.871094 208.03125 27.324219 200.734375 C 27.050781 196.566406 27.460938 192.464844 28.554688 188.4375 C 29.808594 183.804688 31.699219 179.457031 34.230469 175.386719 C 36.761719 171.320312 39.828125 167.707031 43.421875 164.546875 C 46.546875 161.792969 50.03125 159.628906 53.878906 158.046875 C 60.652344 155.339844 67.039062 155.519531 71.867188 158.550781 C 76.695312 161.578125 79.652344 167.261719 80.199219 174.5625 C 80.480469 178.730469 80.074219 182.832031 78.984375 186.867188 Z M 170.914062 178.144531 C 161.550781 178.144531 153.984375 185.480469 153.984375 194.820312 C 153.984375 204.09375 161.550781 211.3125 170.914062 211.3125 C 180.34375 211.3125 187.910156 204.105469 187.910156 194.820312 C 187.910156 185.484375 180.355469 178.144531 170.914062 178.144531 Z M 170.914062 202.59375 C 166.597656 202.59375 163.3125 199.089844 163.3125 194.753906 C 163.3125 190.421875 166.597656 186.867188 170.914062 186.867188 C 175.292969 186.867188 178.582031 190.433594 178.582031 194.765625 C 178.582031 199.101562 175.292969 202.609375 170.914062 202.609375 Z M 209.023438 165.335938 L 191.792969 165.335938 C 191.605469 165.332031 191.425781 165.363281 191.25 165.433594 C 191.074219 165.503906 190.921875 165.609375 190.789062 165.742188 C 190.65625 165.875 190.554688 166.03125 190.484375 166.203125 C 190.414062 166.378906 190.382812 166.5625 190.386719 166.75 L 190.386719 208.925781 C 190.371094 209.121094 190.398438 209.308594 190.464844 209.492188 C 190.53125 209.679688 190.628906 209.839844 190.761719 209.984375 C 190.898438 210.125 191.054688 210.234375 191.234375 210.3125 C 191.414062 210.390625 191.597656 210.425781 191.792969 210.425781 L 209.023438 210.425781 C 222.8125 210.425781 232.394531 201.21875 232.394531 187.824219 C 232.394531 174.347656 222.8125 165.335938 209.023438 165.335938 Z M 209.433594 201.519531 L 200.003906 201.519531 L 200.003906 174.21875 L 209.433594 174.21875 C 217.0625 174.21875 222.324219 179.949219 222.324219 187.804688 C 222.324219 195.53125 217.0625 201.519531 209.433594 201.519531 Z M 266.691406 179.050781 L 260.214844 179.050781 C 260.035156 179.0625 259.863281 179.109375 259.703125 179.1875 C 259.539062 179.265625 259.398438 179.371094 259.273438 179.5 C 259.148438 179.632812 259.050781 179.78125 258.984375 179.945312 C 258.914062 180.113281 258.875 180.285156 258.871094 180.464844 L 258.871094 182.398438 C 257.394531 179.949219 254.0625 178.144531 249.910156 178.144531 C 241.828125 178.144531 234.261719 184.519531 234.261719 194.695312 C 234.261719 204.816406 241.761719 211.304688 249.847656 211.304688 C 254.011719 211.304688 257.414062 209.507812 258.890625 207.058594 L 258.890625 209.050781 C 258.890625 209.230469 258.925781 209.402344 258.992188 209.566406 C 259.0625 209.734375 259.160156 209.878906 259.285156 210.003906 C 259.410156 210.132812 259.554688 210.230469 259.71875 210.300781 C 259.882812 210.367188 260.054688 210.402344 260.234375 210.40625 L 266.710938 210.40625 C 266.890625 210.410156 267.066406 210.378906 267.230469 210.3125 C 267.398438 210.242188 267.546875 210.144531 267.671875 210.019531 C 267.800781 209.890625 267.898438 209.742188 267.964844 209.574219 C 268.03125 209.40625 268.0625 209.234375 268.058594 209.050781 L 268.058594 180.464844 C 268.066406 180.28125 268.035156 180.101562 267.96875 179.929688 C 267.902344 179.753906 267.804688 179.601562 267.675781 179.46875 C 267.546875 179.335938 267.394531 179.230469 267.226562 179.160156 C 267.054688 179.085938 266.878906 179.050781 266.691406 179.050781 Z M 251.625 202.664062 C 247.332031 202.664062 244.109375 199.355469 244.109375 194.761719 C 244.109375 190.171875 247.332031 186.867188 251.625 186.867188 C 255.914062 186.867188 259.136719 190.167969 259.136719 194.757812 C 259.136719 199.351562 255.917969 202.660156 251.625 202.660156 Z M 303.054688 165.335938 L 296.578125 165.335938 C 296.394531 165.328125 296.21875 165.359375 296.046875 165.425781 C 295.875 165.492188 295.722656 165.585938 295.589844 165.714844 C 295.457031 165.84375 295.355469 165.988281 295.28125 166.160156 C 295.210938 166.328125 295.171875 166.503906 295.171875 166.6875 L 295.171875 182.269531 C 293.675781 179.949219 290.292969 178.144531 286.0625 178.144531 C 278.042969 178.144531 270.605469 184.519531 270.605469 194.695312 C 270.605469 204.816406 278.105469 211.304688 286.191406 211.304688 C 290.355469 211.304688 293.5 209.507812 295.234375 207.058594 L 295.234375 209.050781 C 295.234375 209.230469 295.269531 209.402344 295.335938 209.570312 C 295.40625 209.734375 295.503906 209.878906 295.628906 210.007812 C 295.753906 210.132812 295.898438 210.230469 296.0625 210.300781 C 296.226562 210.371094 296.398438 210.40625 296.578125 210.40625 L 303.054688 210.40625 C 303.234375 210.410156 303.410156 210.378906 303.578125 210.3125 C 303.742188 210.246094 303.890625 210.148438 304.019531 210.019531 C 304.144531 209.890625 304.242188 209.742188 304.308594 209.574219 C 304.378906 209.40625 304.40625 209.234375 304.402344 209.050781 L 304.402344 166.695312 C 304.410156 166.511719 304.378906 166.339844 304.3125 166.167969 C 304.246094 166 304.148438 165.851562 304.023438 165.722656 C 303.894531 165.59375 303.746094 165.496094 303.578125 165.429688 C 303.410156 165.359375 303.238281 165.328125 303.054688 165.335938 Z M 287.984375 202.742188 C 283.714844 202.742188 280.519531 199.398438 280.519531 194.757812 C 280.519531 190.117188 283.726562 186.777344 287.984375 186.777344 C 292.246094 186.777344 295.453125 190.117188 295.453125 194.757812 C 295.453125 199.398438 292.261719 202.742188 287.984375 202.742188 Z M 339.410156 165.335938 L 332.945312 165.335938 C 332.761719 165.328125 332.582031 165.359375 332.414062 165.425781 C 332.242188 165.492188 332.089844 165.585938 331.957031 165.714844 C 331.824219 165.839844 331.722656 165.988281 331.648438 166.160156 C 331.574219 166.328125 331.535156 166.503906 331.53125 166.6875 L 331.53125 182.269531 C 330.058594 179.949219 326.65625 178.144531 322.425781 178.144531 C 314.40625 178.144531 306.96875 184.519531 306.96875 194.695312 C 306.96875 204.816406 314.472656 211.304688 322.554688 211.304688 C 326.722656 211.304688 329.863281 209.507812 331.597656 207.058594 L 331.597656 209.050781 C 331.597656 209.230469 331.632812 209.402344 331.699219 209.570312 C 331.769531 209.734375 331.867188 209.878906 331.992188 210.007812 C 332.121094 210.132812 332.265625 210.230469 332.429688 210.300781 C 332.59375 210.371094 332.765625 210.40625 332.945312 210.40625 L 339.410156 210.40625 C 339.589844 210.410156 339.765625 210.378906 339.929688 210.3125 C 340.097656 210.246094 340.246094 210.148438 340.371094 210.019531 C 340.5 209.890625 340.597656 209.742188 340.664062 209.574219 C 340.730469 209.40625 340.761719 209.234375 340.753906 209.050781 L 340.753906 166.695312 C 340.761719 166.511719 340.730469 166.339844 340.664062 166.167969 C 340.601562 166 340.503906 165.851562 340.375 165.722656 C 340.25 165.59375 340.101562 165.496094 339.933594 165.429688 C 339.765625 165.359375 339.589844 165.328125 339.410156 165.335938 Z M 324.339844 202.742188 C 320.066406 202.742188 316.875 199.398438 316.875 194.757812 C 316.875 190.117188 320.082031 186.777344 324.339844 186.777344 C 328.601562 186.777344 331.808594 190.117188 331.808594 194.757812 C 331.808594 199.398438 328.625 202.742188 324.351562 202.742188 Z M 374.882812 181.242188 L 365.214844 214.523438 C 363.347656 220.449219 359.183594 223.988281 352.707031 223.988281 C 349.761719 223.988281 347.078125 223.386719 344.976562 222.179688 C 343.753906 221.480469 342.738281 220.835938 342.738281 219.808594 C 342.738281 219.171875 342.941406 218.84375 343.316406 218.246094 L 345.234375 215.359375 C 345.777344 214.554688 346.175781 214.292969 346.757812 214.292969 C 347.230469 214.304688 347.65625 214.453125 348.035156 214.738281 C 349.242188 215.523438 350.363281 216.195312 352.066406 216.195312 C 354.0625 216.195312 355.585938 215.554688 356.40625 213.171875 L 357.234375 210.410156 L 353.324219 210.410156 C 352.910156 210.421875 352.539062 210.300781 352.214844 210.046875 C 351.886719 209.792969 351.679688 209.460938 351.589844 209.054688 L 342.9375 181.242188 C 342.617188 180.148438 342.914062 179.054688 344.515625 179.054688 L 351.328125 179.054688 C 352.160156 179.054688 352.742188 179.339844 353.109375 180.535156 L 359.5 202.929688 L 365.472656 180.535156 C 365.664062 179.761719 366.179688 179.054688 367.203125 179.054688 L 373.667969 179.054688 C 374.941406 179.050781 375.324219 179.949219 374.882812 181.242188 Z M 151.539062 191.140625 L 151.539062 208.921875 C 151.542969 209.117188 151.507812 209.304688 151.4375 209.488281 C 151.363281 209.667969 151.257812 209.828125 151.117188 209.96875 C 150.980469 210.105469 150.820312 210.210938 150.640625 210.285156 C 150.460938 210.359375 150.273438 210.394531 150.078125 210.390625 L 144.730469 210.390625 C 144.535156 210.394531 144.347656 210.359375 144.167969 210.285156 C 143.984375 210.210938 143.824219 210.105469 143.6875 209.96875 C 143.550781 209.828125 143.445312 209.667969 143.371094 209.488281 C 143.296875 209.304688 143.261719 209.117188 143.265625 208.921875 L 143.265625 204.253906 C 139.871094 208.558594 133.96875 211.269531 127.292969 211.269531 C 114.757812 211.269531 104.957031 201.800781 104.957031 188.320312 C 104.957031 174.3125 115.535156 164.65625 128.898438 164.65625 C 138.765625 164.65625 146.648438 168.914062 150.152344 177.480469 C 150.25 177.707031 150.304688 177.945312 150.3125 178.195312 C 150.3125 178.601562 150.046875 178.90625 149.191406 179.203125 L 142.949219 181.617188 C 142.558594 181.78125 142.164062 181.785156 141.769531 181.636719 C 141.425781 181.433594 141.175781 181.148438 141.023438 180.777344 C 138.78125 176.5 134.796875 173.597656 128.65625 173.597656 C 120.695312 173.597656 114.996094 179.835938 114.996094 187.929688 C 114.996094 195.777344 119.847656 202.226562 128.882812 202.226562 C 133.636719 202.226562 137.425781 199.976562 139.195312 197.507812 L 133.554688 197.507812 C 133.359375 197.511719 133.171875 197.476562 132.992188 197.402344 C 132.8125 197.328125 132.652344 197.222656 132.515625 197.082031 C 132.375 196.945312 132.269531 196.785156 132.195312 196.605469 C 132.125 196.421875 132.089844 196.234375 132.09375 196.039062 L 132.09375 191.207031 C 132.089844 191.011719 132.125 190.820312 132.195312 190.640625 C 132.269531 190.457031 132.375 190.296875 132.515625 190.160156 C 132.652344 190.023438 132.8125 189.914062 132.992188 189.84375 C 133.171875 189.769531 133.359375 189.734375 133.554688 189.738281 L 150.078125 189.738281 C 150.269531 189.726562 150.453125 189.753906 150.632812 189.824219 C 150.8125 189.890625 150.972656 189.988281 151.109375 190.121094 C 151.25 190.253906 151.355469 190.410156 151.429688 190.589844 C 151.503906 190.765625 151.542969 190.949219 151.539062 191.140625 Z M 375.058594 172.46875 L 375.058594 172.035156 C 375.054688 172.003906 375.066406 171.976562 375.085938 171.953125 C 375.109375 171.933594 375.136719 171.925781 375.164062 171.925781 L 377.894531 171.925781 C 377.925781 171.921875 377.949219 171.933594 377.972656 171.953125 C 377.992188 171.976562 378.003906 172.003906 378.003906 172.035156 L 378.003906 172.46875 C 378.003906 172.496094 377.992188 172.523438 377.972656 172.546875 C 377.949219 172.566406 377.925781 172.578125 377.894531 172.578125 L 376.898438 172.578125 L 376.898438 175.277344 C 376.894531 175.351562 376.859375 175.390625 376.785156 175.390625 L 376.269531 175.390625 C 376.242188 175.390625 376.214844 175.378906 376.195312 175.359375 C 376.171875 175.335938 376.160156 175.308594 376.160156 175.277344 L 376.160156 172.578125 L 375.164062 172.578125 C 375.085938 172.582031 375.050781 172.546875 375.058594 172.46875 Z M 379.828125 172.023438 L 380.574219 173.757812 L 381.320312 172.023438 C 381.332031 171.988281 381.355469 171.964844 381.382812 171.945312 C 381.414062 171.929688 381.445312 171.921875 381.484375 171.925781 L 382.347656 171.925781 C 382.425781 171.917969 382.460938 171.953125 382.457031 172.027344 L 382.457031 175.28125 C 382.460938 175.359375 382.429688 175.394531 382.351562 175.390625 L 381.867188 175.390625 C 381.835938 175.390625 381.8125 175.382812 381.789062 175.363281 C 381.765625 175.339844 381.757812 175.3125 381.757812 175.28125 L 381.757812 172.828125 L 380.957031 174.613281 C 380.945312 174.644531 380.925781 174.675781 380.894531 174.699219 C 380.863281 174.714844 380.832031 174.722656 380.796875 174.71875 L 380.398438 174.71875 C 380.363281 174.722656 380.332031 174.714844 380.300781 174.699219 C 380.273438 174.675781 380.253906 174.648438 380.242188 174.613281 L 379.445312 172.828125 L 379.445312 175.28125 C 379.449219 175.355469 379.414062 175.394531 379.339844 175.390625 L 378.84375 175.390625 C 378.769531 175.390625 378.738281 175.355469 378.742188 175.28125 L 378.742188 172.027344 C 378.738281 171.953125 378.773438 171.917969 378.851562 171.925781 L 379.691406 171.925781 C 379.726562 171.921875 379.757812 171.929688 379.789062 171.945312 C 379.808594 171.96875 379.820312 171.992188 379.828125 172.023438 Z M 379.828125 172.023438 "/></g></g></svg>