<svg xmlns="http://www.w3.org/2000/svg" xmlns:xlink="http://www.w3.org/1999/xlink" width="500" zoomAndPan="magnify" viewBox="0 0 375 374.999991" height="500" preserveAspectRatio="xMidYMid meet" version="1.2"><defs><clipPath id="32d2ce2cf7"><path d="M 0 148.296875 L 375 148.296875 L 375 227.046875 L 0 227.046875 Z M 0 148.296875 "/></clipPath></defs><g id="fdb0184890"><g clip-rule="nonzero" clip-path="url(#32d2ce2cf7)"><path style=" stroke:none;fill-rule:nonzero;fill:#111111;fill-opacity:1;" d="M 76.042969 151.894531 C 66.886719 146.148438 54.847656 147.515625 44.101562 154.296875 C 33.390625 147.515625 21.34375 146.148438 12.242188 151.894531 C -2.21875 160.96875 -3.976562 184.339844 8.320312 204.097656 C 17.382812 218.664062 31.574219 227.203125 44.164062 227.046875 C 56.777344 227.203125 70.945312 218.664062 80.003906 204.097656 C 92.242188 184.339844 90.492188 160.96875 76.042969 151.894531 Z M 14.902344 199.925781 C 12.355469 195.867188 10.472656 191.519531 9.242188 186.882812 C 8.148438 182.851562 7.738281 178.753906 8.011719 174.582031 C 8.5625 167.28125 11.515625 161.609375 16.339844 158.570312 C 21.160156 155.535156 27.535156 155.363281 34.320312 158.070312 C 35.335938 158.476562 36.34375 158.933594 37.34375 159.472656 C 33.558594 162.941406 30.316406 166.863281 27.613281 171.234375 C 20.144531 183.234375 17.871094 196.578125 20.472656 207.21875 C 18.390625 204.964844 16.539062 202.53125 14.917969 199.917969 Z M 78.996094 186.875 C 77.761719 191.511719 75.871094 195.859375 73.320312 199.917969 C 71.699219 202.53125 69.847656 204.96875 67.765625 207.226562 C 70.09375 197.714844 68.515625 186 62.804688 175.042969 C 62.714844 174.859375 62.589844 174.703125 62.429688 174.570312 C 62.273438 174.441406 62.09375 174.351562 61.898438 174.296875 C 61.699219 174.242188 61.5 174.230469 61.300781 174.265625 C 61.097656 174.296875 60.910156 174.367188 60.738281 174.480469 L 42.941406 185.644531 C 42.777344 185.75 42.636719 185.878906 42.527344 186.035156 C 42.414062 186.195312 42.335938 186.367188 42.292969 186.558594 C 42.246094 186.746094 42.242188 186.9375 42.273438 187.128906 C 42.304688 187.320312 42.371094 187.496094 42.476562 187.660156 L 45.058594 191.855469 C 45.160156 192.023438 45.289062 192.160156 45.445312 192.273438 C 45.605469 192.386719 45.777344 192.464844 45.964844 192.507812 C 46.152344 192.550781 46.34375 192.558594 46.535156 192.527344 C 46.722656 192.496094 46.902344 192.425781 47.066406 192.324219 L 58.605469 185.085938 C 58.972656 186.207031 59.351562 187.332031 59.628906 188.457031 C 60.722656 192.484375 61.132812 196.578125 60.859375 200.742188 C 60.308594 208.042969 57.355469 213.714844 52.53125 216.75 C 50 218.304688 47.25 219.105469 44.285156 219.148438 L 43.914062 219.148438 C 40.945312 219.105469 38.195312 218.308594 35.664062 216.75 C 30.839844 213.722656 27.914062 208.03125 27.328125 200.742188 C 27.054688 196.570312 27.464844 192.472656 28.558594 188.441406 C 29.808594 183.808594 31.699219 179.460938 34.230469 175.390625 C 36.761719 171.320312 39.828125 167.707031 43.421875 164.550781 C 46.542969 161.796875 50.023438 159.632812 53.867188 158.050781 C 60.636719 155.34375 67.027344 155.527344 71.847656 158.554688 C 76.671875 161.582031 79.597656 167.265625 80.175781 174.566406 C 80.46875 178.734375 80.074219 182.835938 78.996094 186.875 Z M 170.871094 178.15625 C 170.320312 178.144531 169.769531 178.164062 169.222656 178.210938 C 168.675781 178.253906 168.128906 178.328125 167.585938 178.429688 C 167.046875 178.527344 166.511719 178.652344 165.980469 178.808594 C 165.453125 178.960938 164.933594 179.136719 164.421875 179.34375 C 163.910156 179.546875 163.410156 179.777344 162.921875 180.03125 C 162.433594 180.285156 161.957031 180.5625 161.496094 180.867188 C 161.035156 181.167969 160.589844 181.492188 160.160156 181.835938 C 159.730469 182.183594 159.320312 182.550781 158.925781 182.9375 C 158.53125 183.324219 158.160156 183.730469 157.804688 184.152344 C 157.453125 184.578125 157.121094 185.015625 156.808594 185.472656 C 156.5 185.929688 156.214844 186.402344 155.949219 186.886719 C 155.6875 187.375 155.449219 187.871094 155.234375 188.378906 C 155.019531 188.890625 154.828125 189.40625 154.667969 189.9375 C 154.503906 190.464844 154.367188 191 154.253906 191.539062 C 154.144531 192.082031 154.0625 192.628906 154.003906 193.179688 C 153.949219 193.726562 153.917969 194.28125 153.914062 194.832031 C 153.914062 204.105469 161.476562 211.328125 170.835938 211.328125 C 180.199219 211.328125 187.828125 204.121094 187.828125 194.832031 C 187.824219 194.28125 187.796875 193.726562 187.738281 193.179688 C 187.679688 192.628906 187.597656 192.082031 187.488281 191.539062 C 187.375 191 187.238281 190.464844 187.074219 189.9375 C 186.914062 189.40625 186.722656 188.890625 186.507812 188.378906 C 186.292969 187.871094 186.054688 187.375 185.792969 186.886719 C 185.527344 186.402344 185.242188 185.929688 184.933594 185.472656 C 184.621094 185.015625 184.289062 184.578125 183.9375 184.152344 C 183.582031 183.730469 183.210938 183.324219 182.816406 182.9375 C 182.421875 182.550781 182.011719 182.183594 181.582031 181.835938 C 181.152344 181.492188 180.707031 181.167969 180.246094 180.867188 C 179.785156 180.5625 179.308594 180.285156 178.820312 180.03125 C 178.332031 179.777344 177.832031 179.546875 177.320312 179.34375 C 176.808594 179.136719 176.289062 178.960938 175.761719 178.808594 C 175.230469 178.652344 174.695312 178.527344 174.15625 178.429688 C 173.613281 178.328125 173.070312 178.253906 172.519531 178.210938 C 171.972656 178.164062 171.421875 178.144531 170.871094 178.15625 Z M 170.871094 202.609375 C 170.355469 202.621094 169.839844 202.578125 169.332031 202.488281 C 168.824219 202.398438 168.328125 202.257812 167.84375 202.066406 C 167.363281 201.875 166.90625 201.640625 166.46875 201.359375 C 166.035156 201.078125 165.632812 200.757812 165.261719 200.394531 C 164.890625 200.03125 164.558594 199.636719 164.261719 199.210938 C 163.96875 198.78125 163.71875 198.328125 163.515625 197.851562 C 163.3125 197.375 163.15625 196.882812 163.050781 196.375 C 162.941406 195.867188 162.886719 195.351562 162.878906 194.832031 C 162.875 194.3125 162.921875 193.796875 163.015625 193.285156 C 163.113281 192.777344 163.257812 192.28125 163.453125 191.796875 C 163.644531 191.316406 163.886719 190.859375 164.167969 190.425781 C 164.453125 189.992188 164.777344 189.589844 165.140625 189.21875 C 165.507812 188.851562 165.902344 188.519531 166.332031 188.230469 C 166.761719 187.9375 167.214844 187.691406 167.691406 187.492188 C 168.167969 187.292969 168.660156 187.140625 169.167969 187.039062 C 169.675781 186.9375 170.1875 186.886719 170.703125 186.886719 C 171.222656 186.882812 171.734375 186.933594 172.242188 187.039062 C 172.75 187.140625 173.242188 187.289062 173.71875 187.488281 C 174.195312 187.691406 174.648438 187.933594 175.078125 188.226562 C 175.507812 188.515625 175.90625 188.84375 176.269531 189.214844 C 176.632812 189.582031 176.957031 189.984375 177.242188 190.417969 C 177.527344 190.851562 177.765625 191.308594 177.960938 191.789062 C 178.15625 192.273438 178.300781 192.769531 178.398438 193.277344 C 178.496094 193.789062 178.539062 194.304688 178.535156 194.824219 C 178.542969 195.335938 178.503906 195.839844 178.410156 196.339844 C 178.320312 196.84375 178.179688 197.332031 177.988281 197.804688 C 177.800781 198.277344 177.566406 198.726562 177.289062 199.152344 C 177.007812 199.578125 176.691406 199.972656 176.335938 200.335938 C 175.976562 200.699219 175.589844 201.023438 175.167969 201.308594 C 174.746094 201.59375 174.300781 201.832031 173.832031 202.027344 C 173.363281 202.222656 172.878906 202.367188 172.378906 202.464844 C 171.882812 202.566406 171.378906 202.613281 170.871094 202.609375 Z M 208.960938 165.34375 L 191.738281 165.34375 C 191.550781 165.339844 191.367188 165.375 191.195312 165.445312 C 191.019531 165.515625 190.867188 165.617188 190.734375 165.753906 C 190.601562 165.886719 190.5 166.042969 190.429688 166.21875 C 190.359375 166.390625 190.328125 166.574219 190.332031 166.761719 L 190.332031 208.941406 C 190.320312 209.136719 190.347656 209.324219 190.410156 209.507812 C 190.476562 209.691406 190.578125 209.855469 190.710938 209.996094 C 190.84375 210.140625 191 210.25 191.175781 210.324219 C 191.355469 210.402344 191.542969 210.4375 191.738281 210.4375 L 208.960938 210.4375 C 222.738281 210.4375 232.3125 201.234375 232.3125 187.835938 C 232.3125 174.4375 222.746094 165.34375 208.960938 165.34375 Z M 209.375 201.511719 L 199.945312 201.511719 L 199.945312 174.226562 L 209.375 174.226562 C 217.003906 174.226562 222.289062 179.964844 222.289062 187.816406 C 222.253906 195.542969 216.996094 201.511719 209.375 201.511719 Z M 266.605469 179.019531 L 260.128906 179.019531 C 259.949219 179.035156 259.777344 179.078125 259.617188 179.15625 C 259.453125 179.234375 259.308594 179.339844 259.1875 179.46875 C 259.0625 179.601562 258.964844 179.75 258.894531 179.917969 C 258.828125 180.085938 258.789062 180.257812 258.785156 180.4375 L 258.785156 182.367188 C 257.3125 179.921875 253.980469 178.121094 249.828125 178.121094 C 241.753906 178.121094 234.191406 184.496094 234.191406 194.667969 C 234.191406 204.839844 241.691406 211.277344 249.769531 211.277344 C 253.9375 211.277344 257.332031 209.476562 258.8125 207.03125 L 258.8125 209.027344 C 258.8125 209.207031 258.847656 209.378906 258.914062 209.542969 C 258.984375 209.707031 259.082031 209.851562 259.207031 209.980469 C 259.332031 210.105469 259.476562 210.203125 259.640625 210.273438 C 259.804688 210.339844 259.976562 210.375 260.15625 210.375 L 266.628906 210.375 C 266.808594 210.378906 266.984375 210.347656 267.148438 210.28125 C 267.316406 210.214844 267.460938 210.117188 267.589844 209.988281 C 267.714844 209.863281 267.8125 209.714844 267.878906 209.546875 C 267.945312 209.382812 267.976562 209.207031 267.972656 209.027344 L 267.972656 180.480469 C 267.980469 180.296875 267.949219 180.117188 267.882812 179.941406 C 267.816406 179.769531 267.71875 179.617188 267.589844 179.480469 C 267.460938 179.347656 267.308594 179.246094 267.140625 179.171875 C 266.96875 179.101562 266.789062 179.0625 266.605469 179.0625 Z M 251.542969 202.636719 C 247.238281 202.636719 244.035156 199.320312 244.035156 194.738281 C 244.035156 190.152344 247.253906 186.839844 251.542969 186.839844 C 255.832031 186.839844 259.050781 190.144531 259.050781 194.738281 C 259.050781 199.332031 255.832031 202.636719 251.542969 202.636719 Z M 302.945312 165.300781 L 296.46875 165.300781 C 296.285156 165.296875 296.109375 165.328125 295.941406 165.394531 C 295.769531 165.460938 295.621094 165.554688 295.488281 165.683594 C 295.355469 165.808594 295.253906 165.957031 295.179688 166.125 C 295.105469 166.292969 295.070312 166.46875 295.066406 166.652344 L 295.066406 182.222656 C 293.574219 179.902344 290.191406 178.09375 285.964844 178.09375 C 277.945312 178.09375 270.515625 184.46875 270.515625 194.640625 C 270.515625 204.816406 278.015625 211.25 286.09375 211.25 C 290.261719 211.25 293.394531 209.453125 295.132812 207.003906 L 295.132812 209 C 295.136719 209.179688 295.171875 209.351562 295.238281 209.515625 C 295.308594 209.679688 295.40625 209.828125 295.53125 209.953125 C 295.65625 210.078125 295.800781 210.175781 295.964844 210.246094 C 296.128906 210.316406 296.300781 210.351562 296.476562 210.351562 L 302.953125 210.351562 C 303.132812 210.355469 303.304688 210.324219 303.472656 210.253906 C 303.636719 210.1875 303.785156 210.089844 303.910156 209.964844 C 304.039062 209.835938 304.136719 209.6875 304.203125 209.523438 C 304.269531 209.355469 304.300781 209.179688 304.296875 209 L 304.296875 166.617188 C 304.300781 166.4375 304.269531 166.261719 304.203125 166.09375 C 304.136719 165.925781 304.042969 165.777344 303.914062 165.648438 C 303.789062 165.519531 303.640625 165.421875 303.472656 165.355469 C 303.308594 165.285156 303.132812 165.253906 302.953125 165.257812 Z M 287.882812 202.714844 C 283.578125 202.714844 280.417969 199.367188 280.417969 194.730469 C 280.417969 190.09375 283.621094 186.746094 287.882812 186.746094 C 292.144531 186.746094 295.347656 190.09375 295.347656 194.730469 C 295.347656 199.367188 292.15625 202.757812 287.882812 202.757812 Z M 339.277344 165.300781 L 332.808594 165.300781 C 332.625 165.296875 332.449219 165.324219 332.277344 165.390625 C 332.105469 165.457031 331.957031 165.554688 331.824219 165.679688 C 331.691406 165.804688 331.585938 165.953125 331.511719 166.121094 C 331.4375 166.289062 331.402344 166.46875 331.398438 166.652344 L 331.398438 182.222656 C 329.925781 179.902344 326.523438 178.09375 322.292969 178.09375 C 314.277344 178.09375 306.847656 184.46875 306.847656 194.640625 C 306.847656 204.816406 314.347656 211.25 322.425781 211.25 C 326.59375 211.25 329.726562 209.453125 331.464844 207.003906 L 331.464844 209 C 331.46875 209.179688 331.5 209.351562 331.570312 209.515625 C 331.640625 209.679688 331.734375 209.828125 331.863281 209.953125 C 331.988281 210.078125 332.132812 210.175781 332.296875 210.246094 C 332.460938 210.316406 332.632812 210.351562 332.808594 210.351562 L 339.277344 210.351562 C 339.457031 210.355469 339.628906 210.324219 339.796875 210.257812 C 339.964844 210.191406 340.109375 210.09375 340.238281 209.964844 C 340.363281 209.839844 340.460938 209.691406 340.527344 209.523438 C 340.59375 209.355469 340.625 209.183594 340.621094 209 L 340.621094 166.617188 C 340.625 166.433594 340.597656 166.261719 340.53125 166.089844 C 340.464844 165.921875 340.367188 165.773438 340.238281 165.644531 C 340.113281 165.515625 339.964844 165.417969 339.796875 165.351562 C 339.628906 165.285156 339.457031 165.253906 339.277344 165.257812 Z M 324.214844 202.714844 C 319.910156 202.714844 316.75 199.367188 316.75 194.730469 C 316.75 190.09375 319.953125 186.746094 324.214844 186.746094 C 328.476562 186.746094 331.679688 190.09375 331.679688 194.730469 C 331.679688 199.367188 328.496094 202.714844 324.230469 202.714844 Z M 374.730469 181.207031 L 365.066406 214.539062 C 363.199219 220.460938 359.039062 224 352.5625 224 C 349.824219 224.082031 347.238281 223.480469 344.8125 222.191406 C 343.589844 221.492188 342.574219 220.851562 342.574219 219.824219 C 342.589844 219.234375 342.78125 218.714844 343.152344 218.257812 L 345.089844 215.351562 C 345.632812 214.546875 346.027344 214.277344 346.613281 214.277344 C 347.085938 214.292969 347.511719 214.441406 347.886719 214.726562 C 349.074219 215.652344 350.417969 216.140625 351.917969 216.191406 C 353.90625 216.191406 355.429688 215.550781 356.222656 213.164062 L 357.085938 210.402344 L 353.183594 210.402344 C 352.773438 210.414062 352.40625 210.292969 352.082031 210.039062 C 351.757812 209.785156 351.550781 209.457031 351.460938 209.054688 L 342.851562 181.242188 C 342.53125 180.144531 342.851562 179.054688 344.425781 179.054688 L 351.238281 179.054688 C 352.097656 179.054688 352.648438 179.339844 353.019531 180.535156 L 359.402344 202.929688 L 365.367188 180.535156 C 365.398438 180.328125 365.464844 180.132812 365.566406 179.949219 C 365.667969 179.765625 365.796875 179.605469 365.953125 179.46875 C 366.113281 179.335938 366.289062 179.230469 366.484375 179.160156 C 366.679688 179.085938 366.882812 179.054688 367.089844 179.054688 L 373.507812 179.054688 C 374.789062 179.019531 375.175781 179.964844 374.730469 181.253906 Z M 151.511719 191.128906 L 151.511719 208.90625 C 151.515625 209.101562 151.480469 209.292969 151.410156 209.472656 C 151.335938 209.65625 151.230469 209.816406 151.09375 209.953125 C 150.953125 210.09375 150.792969 210.199219 150.613281 210.273438 C 150.433594 210.34375 150.242188 210.378906 150.050781 210.375 L 144.703125 210.375 C 144.507812 210.378906 144.316406 210.34375 144.136719 210.273438 C 143.957031 210.199219 143.796875 210.09375 143.660156 209.953125 C 143.519531 209.816406 143.414062 209.65625 143.339844 209.472656 C 143.269531 209.292969 143.234375 209.101562 143.238281 208.90625 L 143.238281 204.234375 C 139.84375 208.558594 133.945312 211.25 127.273438 211.25 C 114.742188 211.25 104.949219 201.777344 104.949219 188.300781 C 104.949219 174.296875 115.527344 164.636719 128.882812 164.636719 C 138.742188 164.636719 146.621094 168.890625 150.125 177.453125 C 150.226562 177.683594 150.28125 177.921875 150.289062 178.171875 C 150.289062 178.578125 150.023438 178.882812 149.171875 179.183594 L 142.917969 181.617188 C 142.527344 181.773438 142.132812 181.773438 141.738281 181.617188 C 141.394531 181.410156 141.144531 181.121094 140.988281 180.75 C 138.75 176.476562 134.761719 173.570312 128.632812 173.570312 C 120.675781 173.570312 114.972656 179.816406 114.972656 187.902344 C 114.972656 195.75 119.824219 202.203125 128.855469 202.203125 C 133.609375 202.203125 137.390625 199.953125 139.191406 197.480469 L 133.558594 197.480469 C 133.363281 197.484375 133.175781 197.449219 132.992188 197.375 C 132.8125 197.300781 132.652344 197.195312 132.515625 197.058594 C 132.378906 196.917969 132.269531 196.757812 132.199219 196.574219 C 132.125 196.394531 132.089844 196.207031 132.09375 196.007812 L 132.09375 191.21875 C 132.089844 191.019531 132.125 190.832031 132.199219 190.648438 C 132.269531 190.46875 132.378906 190.308594 132.515625 190.167969 C 132.652344 190.03125 132.8125 189.925781 132.992188 189.851562 C 133.175781 189.777344 133.363281 189.742188 133.558594 189.746094 L 150.074219 189.746094 C 150.265625 189.738281 150.453125 189.765625 150.632812 189.832031 C 150.8125 189.902344 150.96875 190 151.109375 190.132812 C 151.246094 190.269531 151.355469 190.421875 151.429688 190.601562 C 151.503906 190.777344 151.539062 190.964844 151.539062 191.15625 Z M 151.511719 191.128906 "/></g></g></svg>