<svg xmlns="http://www.w3.org/2000/svg" xmlns:xlink="http://www.w3.org/1999/xlink" width="500" zoomAndPan="magnify" viewBox="0 0 375 374.999991" height="500" preserveAspectRatio="xMidYMid meet" version="1.2"><g id="3b0b635faa"><path style=" stroke:none;fill-rule:nonzero;fill:#000000;fill-opacity:1;" d="M 112.777344 172.246094 L 119.8125 172.246094 L 119.8125 203.402344 L 112.777344 203.402344 L 112.777344 190.183594 L 100.964844 190.183594 L 100.964844 203.402344 L 93.929688 203.402344 L 93.929688 172.246094 L 100.964844 172.246094 L 100.964844 184.160156 L 112.777344 184.160156 Z M 112.777344 172.246094 "/><path style=" stroke:none;fill-rule:nonzero;fill:#000000;fill-opacity:1;" d="M 136.238281 187.800781 C 136.238281 189.328125 136.425781 190.707031 136.800781 191.9375 C 137.175781 193.167969 137.71875 194.222656 138.425781 195.109375 C 139.128906 195.992188 139.996094 196.671875 141.015625 197.152344 C 142.039062 197.632812 143.210938 197.875 144.535156 197.875 C 145.828125 197.875 146.992188 197.632812 148.027344 197.152344 C 149.066406 196.671875 149.9375 195.992188 150.644531 195.109375 C 151.351562 194.222656 151.890625 193.167969 152.269531 191.9375 C 152.644531 190.707031 152.832031 189.328125 152.832031 187.800781 C 152.832031 186.273438 152.644531 184.886719 152.269531 183.640625 C 151.890625 182.398438 151.351562 181.335938 150.644531 180.449219 C 149.9375 179.566406 149.066406 178.882812 148.027344 178.40625 C 146.992188 177.925781 145.828125 177.6875 144.535156 177.6875 C 143.210938 177.6875 142.039062 177.933594 141.015625 178.425781 C 139.996094 178.921875 139.128906 179.613281 138.425781 180.496094 C 137.71875 181.378906 137.175781 182.445312 136.800781 183.6875 C 136.425781 184.933594 136.238281 186.304688 136.238281 187.800781 Z M 160.09375 187.800781 C 160.09375 190.46875 159.691406 192.816406 158.898438 194.835938 C 158.101562 196.859375 157.011719 198.554688 155.628906 199.917969 C 154.246094 201.28125 152.597656 202.308594 150.691406 202.996094 C 148.78125 203.6875 146.730469 204.03125 144.535156 204.03125 C 142.402344 204.03125 140.386719 203.6875 138.492188 202.996094 C 136.597656 202.308594 134.945312 201.28125 133.535156 199.917969 C 132.121094 198.554688 131.007812 196.859375 130.195312 194.835938 C 129.386719 192.816406 128.976562 190.46875 128.976562 187.800781 C 128.976562 185.132812 129.398438 182.789062 130.242188 180.765625 C 131.082031 178.742188 132.21875 177.039062 133.644531 175.664062 C 135.074219 174.285156 136.726562 173.25 138.605469 172.558594 C 140.484375 171.871094 142.460938 171.523438 144.535156 171.523438 C 146.667969 171.523438 148.683594 171.871094 150.578125 172.558594 C 152.472656 173.25 154.125 174.285156 155.539062 175.664062 C 156.949219 177.039062 158.0625 178.742188 158.875 180.765625 C 159.6875 182.789062 160.09375 185.132812 160.09375 187.800781 Z M 160.09375 187.800781 "/><path style=" stroke:none;fill-rule:nonzero;fill:#000000;fill-opacity:1;" d="M 177.78125 198.054688 C 178.773438 198.054688 179.589844 197.972656 180.238281 197.804688 C 180.882812 197.640625 181.402344 197.417969 181.792969 197.128906 C 182.183594 196.847656 182.453125 196.507812 182.605469 196.121094 C 182.757812 195.730469 182.832031 195.296875 182.832031 194.816406 C 182.832031 193.796875 182.351562 192.949219 181.386719 192.277344 C 180.425781 191.601562 178.773438 190.875 176.429688 190.09375 C 175.40625 189.734375 174.382812 189.320312 173.363281 188.859375 C 172.339844 188.394531 171.421875 187.808594 170.609375 187.105469 C 169.800781 186.402344 169.136719 185.546875 168.628906 184.539062 C 168.117188 183.539062 167.859375 182.316406 167.859375 180.878906 C 167.859375 179.4375 168.132812 178.140625 168.671875 176.988281 C 169.214844 175.835938 169.980469 174.855469 170.972656 174.042969 C 171.964844 173.234375 173.164062 172.613281 174.578125 172.175781 C 175.992188 171.742188 177.585938 171.523438 179.359375 171.523438 C 181.464844 171.523438 183.28125 171.75 184.816406 172.199219 C 186.347656 172.648438 187.609375 173.144531 188.601562 173.683594 L 186.574219 179.214844 C 185.703125 178.765625 184.730469 178.367188 183.664062 178.023438 C 182.597656 177.679688 181.3125 177.503906 179.808594 177.503906 C 178.125 177.503906 176.917969 177.738281 176.179688 178.203125 C 175.445312 178.667969 175.074219 179.378906 175.074219 180.335938 C 175.074219 180.90625 175.210938 181.386719 175.480469 181.777344 C 175.75 182.167969 176.136719 182.519531 176.628906 182.832031 C 177.128906 183.148438 177.699219 183.433594 178.34375 183.6875 C 178.988281 183.941406 179.703125 184.203125 180.488281 184.472656 C 182.109375 185.074219 183.523438 185.664062 184.726562 186.25 C 185.925781 186.835938 186.925781 187.515625 187.722656 188.296875 C 188.519531 189.074219 189.113281 189.988281 189.503906 191.039062 C 189.894531 192.089844 190.089844 193.363281 190.089844 194.859375 C 190.089844 197.765625 189.070312 200.023438 187.023438 201.625 C 184.980469 203.230469 181.898438 204.035156 177.78125 204.035156 C 176.398438 204.035156 175.148438 203.949219 174.039062 203.785156 C 172.925781 203.621094 171.941406 203.417969 171.085938 203.179688 C 170.226562 202.9375 169.492188 202.683594 168.875 202.414062 C 168.257812 202.144531 167.738281 201.890625 167.320312 201.648438 L 169.304688 196.074219 C 170.234375 196.585938 171.382812 197.042969 172.753906 197.445312 C 174.121094 197.851562 175.796875 198.054688 177.78125 198.054688 Z M 177.78125 198.054688 "/><path style=" stroke:none;fill-rule:nonzero;fill:#000000;fill-opacity:1;" d="M 221.082031 172.246094 L 221.082031 178.226562 L 211.65625 178.226562 L 211.65625 203.402344 L 204.621094 203.402344 L 204.621094 178.226562 L 195.199219 178.226562 L 195.199219 172.246094 Z M 221.082031 172.246094 "/><path style=" stroke:none;fill-rule:nonzero;fill:#000000;fill-opacity:1;" d="M 228.894531 203.402344 L 235.929688 203.402344 L 235.929688 172.246094 L 228.894531 172.246094 Z M 228.894531 203.402344 "/><path style=" stroke:none;fill-rule:nonzero;fill:#000000;fill-opacity:1;" d="M 267.417969 203.402344 C 265.40625 199.835938 263.226562 196.316406 260.878906 192.835938 C 258.535156 189.359375 256.039062 186.078125 253.394531 182.992188 L 253.394531 203.402344 L 246.449219 203.402344 L 246.449219 172.246094 L 252.175781 172.246094 C 253.167969 173.234375 254.265625 174.449219 255.46875 175.886719 C 256.671875 177.328125 257.894531 178.863281 259.140625 180.496094 C 260.390625 182.128906 261.628906 183.824219 262.863281 185.574219 C 264.09375 187.328125 265.253906 189.015625 266.335938 190.632812 L 266.335938 172.246094 L 273.324219 172.246094 L 273.324219 203.402344 Z M 267.417969 203.402344 "/><path style=" stroke:none;fill-rule:nonzero;fill:#000000;fill-opacity:1;" d="M 299.085938 177.640625 C 295.808594 177.640625 293.441406 178.546875 291.984375 180.359375 C 290.523438 182.175781 289.796875 184.652344 289.796875 187.800781 C 289.796875 189.328125 289.976562 190.71875 290.335938 191.960938 C 290.699219 193.203125 291.238281 194.273438 291.960938 195.175781 C 292.683594 196.074219 293.582031 196.769531 294.664062 197.265625 C 295.746094 197.761719 297.011719 198.007812 298.453125 198.007812 C 299.234375 198.007812 299.90625 197.992188 300.460938 197.964844 C 301.015625 197.933594 301.503906 197.875 301.925781 197.78125 L 301.925781 186.949219 L 308.960938 186.949219 L 308.960938 202.371094 C 308.117188 202.699219 306.765625 203.050781 304.902344 203.425781 C 303.039062 203.800781 300.738281 203.988281 298.003906 203.988281 C 295.65625 203.988281 293.53125 203.628906 291.621094 202.910156 C 289.710938 202.1875 288.082031 201.140625 286.730469 199.761719 C 285.378906 198.382812 284.332031 196.6875 283.59375 194.679688 C 282.859375 192.671875 282.488281 190.378906 282.488281 187.800781 C 282.488281 185.195312 282.898438 182.886719 283.710938 180.878906 C 284.519531 178.871094 285.628906 177.167969 287.046875 175.773438 C 288.457031 174.378906 290.117188 173.324219 292.027344 172.605469 C 293.9375 171.886719 295.972656 171.523438 298.136719 171.523438 C 299.609375 171.523438 300.941406 171.625 302.128906 171.816406 C 303.316406 172.011719 304.335938 172.238281 305.195312 172.492188 C 306.050781 172.746094 306.757812 173.007812 307.316406 173.277344 C 307.871094 173.550781 308.265625 173.757812 308.511719 173.910156 L 306.480469 179.527344 C 305.515625 179.019531 304.414062 178.578125 303.164062 178.203125 C 301.917969 177.828125 300.558594 177.640625 299.085938 177.640625 Z M 299.085938 177.640625 "/><path style=" stroke:none;fill-rule:nonzero;fill:#000000;fill-opacity:1;" d="M 318.800781 203.402344 L 318.800781 172.246094 L 339.90625 172.246094 L 339.90625 178.136719 L 325.835938 178.136719 L 325.835938 184.25 L 338.328125 184.25 L 338.328125 190.003906 L 325.835938 190.003906 L 325.835938 197.515625 L 340.945312 197.515625 L 340.945312 203.402344 Z M 318.800781 203.402344 "/><path style=" stroke:none;fill-rule:nonzero;fill:#000000;fill-opacity:1;" d="M 358.988281 177.867188 C 358.480469 177.867188 358.023438 177.878906 357.613281 177.910156 C 357.210938 177.941406 356.828125 177.972656 356.464844 178 L 356.464844 186.453125 L 358.449219 186.453125 C 361.09375 186.453125 362.988281 186.125 364.128906 185.464844 C 365.273438 184.804688 365.84375 183.679688 365.84375 182.089844 C 365.84375 180.5625 365.265625 179.476562 364.109375 178.832031 C 362.949219 178.1875 361.246094 177.867188 358.988281 177.867188 Z M 358.585938 171.886719 C 363.277344 171.886719 366.871094 172.714844 369.363281 174.378906 C 371.859375 176.042969 373.109375 178.628906 373.109375 182.136719 C 373.109375 184.324219 372.605469 186.101562 371.597656 187.464844 C 370.589844 188.828125 369.140625 189.902344 367.246094 190.679688 C 367.878906 191.457031 368.539062 192.351562 369.230469 193.355469 C 369.921875 194.359375 370.605469 195.410156 371.28125 196.503906 C 371.957031 197.597656 372.613281 198.734375 373.242188 199.917969 C 373.871094 201.101562 374.460938 202.265625 375 203.402344 L 367.136719 203.402344 C 366.5625 202.382812 365.984375 201.351562 365.394531 200.300781 C 364.804688 199.253906 364.203125 198.234375 363.585938 197.242188 C 362.96875 196.253906 362.351562 195.316406 361.753906 194.433594 C 361.148438 193.546875 360.542969 192.746094 359.941406 192.027344 L 356.46875 192.027344 L 356.46875 203.402344 L 349.433594 203.402344 L 349.433594 172.695312 C 350.96875 172.394531 352.550781 172.183594 354.191406 172.066406 C 355.828125 171.945312 357.296875 171.886719 358.585938 171.886719 Z M 358.585938 171.886719 "/><path style=" stroke:none;fill-rule:nonzero;fill:#000000;fill-opacity:1;" d="M 0 185.113281 L 0 150 L 17.722656 159.449219 L 17.722656 175.273438 L 41.183594 175.28125 L 59.195312 185.113281 Z M 45.980469 172.375 L 45.980469 150 L 64.179688 159.214844 L 64.179688 182.949219 Z M 45.980469 215.292969 L 45.980469 199.609375 L 22.339844 199.59375 C 22.363281 199.699219 4.03125 189.605469 4.03125 189.605469 L 64.179688 189.886719 L 64.179688 225 Z M 0 215.292969 L 0 192.347656 L 17.722656 202.671875 L 17.722656 224.507812 Z M 0 215.292969 "/></g></svg>