<svg clip-rule="evenodd" fill-rule="evenodd" stroke-linejoin="round" stroke-miterlimit="2" viewBox="0 0 560 400" xmlns="http://www.w3.org/2000/svg"><path d="m6.139 12.714-1.461-1.458 9.349-9.349c2.109-2.104 5.574-2.104 7.682 0l.728.731-1.458 1.457-.727-.727c-1.307-1.3-3.45-1.3-4.758 0zm12.49-6.268-9.36 9.359c-1.021 1.045-2.422 1.634-3.883 1.634-2.98 0-5.432-2.452-5.432-5.431 0-1.462.59-2.864 1.636-3.886l8.075-8.074 1.457 1.457-8.074 8.075c-.632.632-.988 1.49-.988 2.383 0 1.849 1.521 3.37 3.37 3.37.893 0 1.75-.355 2.382-.986l9.359-9.359zm9.315 1.676c2.105 2.109 2.105 5.574 0 7.683l-8.074 8.074-1.461-1.458 8.065-8.074c.64-.627.999-1.487.996-2.384-.001-1.848-1.522-3.368-3.37-3.368-.892 0-1.749.354-2.381.985l-9.359 9.359-1.457-1.458 9.359-9.359c2.109-2.102 5.573-2.102 7.682 0zm-4.548 3.091 1.458 1.451-9.36 9.362c-2.109 2.103-5.573 2.103-7.682 0l-.727-.73 1.457-1.457.727.73c1.309 1.305 3.459 1.305 4.768 0zm14.684 3.267c.096.555.399 1.054.847 1.394.514.356 1.132.532 1.756.502.595.038 1.184-.138 1.66-.495.385-.32.601-.801.585-1.301.006-.231-.048-.46-.156-.664-.11-.185-.259-.343-.439-.462-.213-.142-.446-.254-.69-.332l-.923-.279-.88-.239c-.488-.129-.962-.304-1.418-.521-.391-.185-.752-.426-1.072-.717-.286-.265-.512-.588-.664-.946-.162-.395-.242-.819-.232-1.245-.005-.473.097-.941.298-1.368.195-.416.482-.782.84-1.069.395-.316.845-.553 1.328-.701.565-.179 1.155-.265 1.747-.255 1.219 0 2.185.287 2.898.863.713.574 1.166 1.412 1.255 2.324l-1.992.163c-.099-.457-.355-.865-.724-1.153-.447-.298-.98-.443-1.517-.411-.507-.03-1.008.118-1.418.418-.331.258-.521.659-.511 1.079-.008.221.044.44.149.634.107.179.254.332.429.445.213.139.443.25.684.332.269.1.574.206.913.316l.843.262c.525.166.999.338 1.424.518.391.166.755.39 1.079.664.293.247.526.557.684.906.171.412.252.856.239 1.302.006.521-.108 1.036-.332 1.507-.216.452-.531.849-.923 1.162-.42.332-.899.584-1.411.743-.583.182-1.192.27-1.803.263-1.08.04-2.146-.26-3.047-.857-.851-.615-1.402-1.563-1.518-2.606zm15.422-8.665c.835-.011 1.664.142 2.44.451.709.284 1.348.717 1.876 1.269.529.562.939 1.226 1.205 1.952.292.797.437 1.641.428 2.49.012.864-.142 1.723-.455 2.53-.291.732-.73 1.397-1.291 1.952l1.58 1.849v.574h-1.992l-1.105-1.351c-.401.192-.82.341-1.252.445-.466.1-.941.149-1.418.146-.844.005-1.682-.157-2.463-.478-.705-.286-1.34-.719-1.863-1.272-.522-.56-.926-1.221-1.185-1.942-.286-.789-.429-1.623-.421-2.463-.009-.845.134-1.685.421-2.48.261-.724.668-1.386 1.195-1.946.527-.552 1.164-.986 1.87-1.275.771-.312 1.598-.466 2.43-.451zm-.017 1.779c-.548-.008-1.091.105-1.59.332-.459.212-.864.524-1.185.913-.335.408-.587.877-.744 1.381-.173.562-.258 1.146-.252 1.734-.006.592.082 1.181.262 1.746.161.508.415.982.75 1.398.321.393.726.711 1.186.929.498.229 1.042.342 1.59.332.548.005 1.09-.108 1.59-.332.458-.207.863-.515 1.185-.9.339-.408.594-.88.751-1.387.181-.578.271-1.181.265-1.786.005-.597-.084-1.191-.265-1.76-.159-.505-.414-.974-.751-1.381-.326-.385-.733-.694-1.192-.903-.504-.221-1.05-.329-1.6-.316zm13.791 8.848c.747.046 1.477-.241 1.992-.783.472-.52.708-1.32.708-2.397v-7.218h2.068v7.284c.016.746-.096 1.49-.332 2.198-.191.567-.513 1.081-.94 1.5-.423.401-.937.695-1.497.857-1.303.361-2.68.361-3.984 0-.558-.162-1.069-.456-1.491-.857-.425-.42-.747-.934-.939-1.5-.236-.708-.348-1.452-.332-2.198v-7.284h2.075v7.218c0 1.075.237 1.874.71 2.397.508.535 1.226.821 1.962.783zm6.84.87 4.199-11.255h3.115l4.153 11.255v.564h-2.042l-1.188-3.379h-5.123l-1.202 3.379h-1.926zm3.738-4.582h3.908l-.644-1.879c-.253-.733-.455-1.328-.611-1.796s-.289-.866-.412-1.218h-.508l-.199.561c-.067.186-.14.395-.223.624s-.172.495-.272.793c-.099.299-.219.641-.362 1.036zm19.329 5.146h-1.992l-3.609-4.648h-1.328v4.648h-2.045v-11.832h3.841c.576-.001 1.151.04 1.72.123.529.076 1.034.272 1.477.571.935.615 1.402 1.542 1.402 2.782.009.48-.073.958-.243 1.408-.143.378-.359.725-.634 1.022-.263.279-.571.511-.913.684-.342.175-.705.308-1.079.395l3.403 4.283zm-6.935-6.427h1.796c.651.035 1.299-.115 1.869-.432.467-.312.729-.854.684-1.414.055-.557-.216-1.098-.694-1.388-.576-.286-1.216-.421-1.859-.392h-1.796zm9.571-5.405h7.663v1.813h-5.644v3.097h5.239v1.78h-5.229v3.32h5.75v1.822h-7.779zm12.36 8.436c.096.555.399 1.054.847 1.394.515.356 1.132.532 1.756.502.595.038 1.184-.138 1.66-.495.385-.32.601-.801.585-1.301.006-.231-.047-.46-.156-.664-.109-.185-.259-.343-.439-.462-.213-.142-.446-.254-.69-.332l-.923-.279-.89-.245c-.488-.13-.962-.304-1.418-.522-.39-.184-.752-.426-1.072-.717-.285-.265-.512-.587-.664-.946-.331-.844-.307-1.787.067-2.613.195-.415.482-.781.839-1.069.395-.315.845-.553 1.328-.7.565-.179 1.155-.266 1.747-.256 1.219 0 2.187.288 2.901.863.713.575 1.164 1.413 1.252 2.324l-1.992.163c-.097-.456-.351-.864-.717-1.152-.447-.3-.98-.444-1.517-.412-.507-.03-1.009.118-1.418.418-.33.259-.519.66-.508 1.079-.009.221.041.44.146.635.107.179.254.331.429.444.213.139.443.251.683.332.269.1.575.206.917.316l.84.262c.526.166 1.001.339 1.424.518.391.166.755.39 1.079.664.292.248.526.557.684.906.171.412.252.856.239 1.302.005.521-.108 1.037-.332 1.507-.215.453-.531.85-.923 1.162-.421.33-.9.58-1.411.737-.585.182-1.194.27-1.806.262-1.08.04-2.146-.259-3.048-.856-.845-.614-1.393-1.555-1.51-2.593zm9.967-8.436h4.316c.684-.018 1.366.078 2.019.282.496.153.95.418 1.328.774.332.323.58.721.723 1.162.153.465.228.951.223 1.441.013.551-.091 1.099-.306 1.606-.194.444-.496.833-.879 1.129-.42.311-.896.536-1.401.664-.609.156-1.235.231-1.863.223h-2.092v4.551h-2.061zm2.062 5.504h1.975c.334.003.668-.027.996-.089.28-.052.547-.155.79-.302.224-.14.406-.337.528-.571.134-.275.199-.578.19-.883.009-.313-.055-.624-.19-.907-.118-.237-.298-.437-.521-.581-.239-.148-.504-.251-.78-.302-.328-.063-.662-.093-.996-.09h-2.009zm7.118 5.764 4.203-11.255h3.114l4.15 11.255v.564h-2.025l-1.185-3.379h-5.143l-1.185 3.379h-1.929zm3.742-4.582h3.904l-.644-1.879c-.253-.733-.455-1.328-.608-1.796l-.411-1.218h-.525l-.199.561c-.067.186-.14.395-.223.624s-.172.495-.272.793c-.099.299-.219.641-.362 1.036zm20.281 2.016c-.187.463-.433.9-.73 1.301-.308.411-.679.772-1.099 1.069-.455.32-.958.564-1.491.724-.611.183-1.247.273-1.885.265-.825.013-1.643-.144-2.404-.461-.697-.291-1.325-.725-1.843-1.275-.52-.562-.921-1.224-1.178-1.945-.282-.785-.422-1.614-.415-2.447-.008-.834.133-1.662.415-2.447.258-.725.661-1.389 1.185-1.952.521-.556 1.152-.997 1.853-1.295.763-.321 1.585-.481 2.413-.468 1.152-.041 2.289.276 3.254.906.857.584 1.507 1.426 1.856 2.404l-2.095.412c-.261-.575-.674-1.068-1.195-1.425-.551-.356-1.197-.537-1.853-.518-.538-.011-1.071.102-1.557.332-.448.22-.841.536-1.152.927-.326.415-.57.89-.717 1.397-.17.559-.254 1.14-.249 1.723-.005.588.081 1.173.255 1.733.157.503.408.971.741 1.378.325.383.729.69 1.185.9.496.228 1.038.341 1.584.332.678.027 1.347-.17 1.902-.561.489-.359.887-.827 1.162-1.368zm2.786-8.702h7.662v1.813h-5.644v3.097h5.249v1.78h-5.239v3.32h5.751v1.822h-7.779z" transform="matrix(3.01277 0 0 3.01277 30.1386 163.957)"/></svg>