<svg xmlns="http://www.w3.org/2000/svg" xmlns:xlink="http://www.w3.org/1999/xlink" width="500" zoomAndPan="magnify" viewBox="0 0 375 374.999991" height="500" preserveAspectRatio="xMidYMid meet" version="1.2"><g id="0b57112ba5"><path style=" stroke:none;fill-rule:evenodd;fill:#000000;fill-opacity:1;" d="M 32.570312 188.960938 L 29.621094 186.019531 L 48.480469 167.164062 C 52.738281 162.921875 59.726562 162.921875 63.980469 167.164062 L 65.449219 168.640625 L 62.507812 171.578125 L 61.039062 170.113281 C 58.402344 167.492188 54.082031 167.492188 51.441406 170.113281 Z M 57.765625 176.320312 L 38.882812 195.195312 C 36.824219 197.300781 33.996094 198.488281 31.050781 198.488281 C 25.039062 198.488281 20.089844 193.542969 20.089844 187.535156 C 20.089844 184.589844 21.28125 181.761719 23.390625 179.699219 L 39.683594 163.417969 L 42.621094 166.355469 L 26.332031 182.640625 C 25.058594 183.914062 24.339844 185.644531 24.339844 187.445312 C 24.339844 191.175781 27.40625 194.242188 31.136719 194.242188 C 32.941406 194.242188 34.667969 193.527344 35.945312 192.253906 L 54.824219 173.378906 Z M 76.558594 179.699219 C 80.804688 183.953125 80.804688 190.941406 76.558594 195.195312 L 60.269531 211.476562 L 57.324219 208.535156 L 73.59375 192.253906 C 74.882812 190.988281 75.609375 189.253906 75.601562 187.445312 C 75.601562 183.71875 72.53125 180.652344 68.804688 180.652344 C 67.003906 180.652344 65.277344 181.367188 64 182.640625 L 45.117188 201.515625 L 42.179688 198.574219 L 61.0625 179.699219 C 65.316406 175.460938 72.304688 175.460938 76.558594 179.699219 Z M 67.382812 185.933594 L 70.324219 188.859375 L 51.441406 207.738281 C 47.1875 211.980469 40.199219 211.980469 35.945312 207.738281 L 34.476562 206.265625 L 37.417969 203.328125 L 38.882812 204.800781 C 41.523438 207.433594 45.863281 207.433594 48.503906 204.800781 Z M 97.007812 192.523438 C 97.203125 193.640625 97.8125 194.648438 98.71875 195.332031 C 99.753906 196.050781 101 196.40625 102.261719 196.34375 C 103.460938 196.421875 104.648438 196.066406 105.609375 195.347656 C 106.386719 194.703125 106.820312 193.730469 106.789062 192.722656 C 106.800781 192.257812 106.691406 191.796875 106.472656 191.382812 C 106.253906 191.011719 105.953125 190.691406 105.589844 190.453125 C 105.160156 190.167969 104.6875 189.941406 104.195312 189.78125 L 102.335938 189.21875 L 100.558594 188.738281 C 99.574219 188.476562 98.617188 188.125 97.699219 187.6875 C 96.910156 187.316406 96.179688 186.828125 95.535156 186.242188 C 94.957031 185.707031 94.503906 185.054688 94.195312 184.332031 C 93.867188 183.539062 93.707031 182.683594 93.726562 181.824219 C 93.71875 180.871094 93.921875 179.925781 94.328125 179.0625 C 94.722656 178.226562 95.300781 177.488281 96.023438 176.910156 C 96.820312 176.269531 97.730469 175.792969 98.703125 175.496094 C 99.84375 175.132812 101.03125 174.960938 102.226562 174.980469 C 104.6875 174.980469 106.636719 175.558594 108.074219 176.722656 C 109.511719 177.878906 110.425781 179.570312 110.605469 181.40625 L 106.585938 181.738281 C 106.386719 180.816406 105.871094 179.992188 105.125 179.410156 C 104.226562 178.808594 103.148438 178.519531 102.066406 178.582031 C 101.042969 178.523438 100.03125 178.820312 99.207031 179.425781 C 98.539062 179.945312 98.152344 180.753906 98.175781 181.601562 C 98.160156 182.046875 98.261719 182.488281 98.476562 182.878906 C 98.691406 183.242188 98.988281 183.550781 99.339844 183.777344 C 99.769531 184.058594 100.234375 184.28125 100.71875 184.445312 C 101.261719 184.648438 101.878906 184.863281 102.5625 185.085938 L 104.261719 185.613281 C 105.324219 185.945312 106.277344 186.292969 107.136719 186.65625 C 107.925781 186.992188 108.660156 187.445312 109.3125 187.996094 C 109.902344 188.496094 110.375 189.121094 110.691406 189.824219 C 111.039062 190.652344 111.203125 191.550781 111.175781 192.449219 C 111.1875 193.5 110.957031 194.539062 110.503906 195.488281 C 110.070312 196.398438 109.433594 197.199219 108.644531 197.832031 C 107.796875 198.5 106.828125 199.007812 105.796875 199.328125 C 104.621094 199.695312 103.390625 199.875 102.160156 199.859375 C 99.980469 199.941406 97.828125 199.335938 96.011719 198.132812 C 94.292969 196.890625 93.183594 194.980469 92.949219 192.875 Z M 128.121094 175.046875 C 129.804688 175.023438 131.480469 175.332031 133.042969 175.957031 C 134.476562 176.53125 135.765625 177.402344 136.828125 178.515625 C 137.894531 179.648438 138.722656 180.988281 139.261719 182.453125 C 139.847656 184.058594 140.140625 185.761719 140.125 187.472656 C 140.148438 189.214844 139.835938 190.949219 139.207031 192.574219 C 138.617188 194.050781 137.734375 195.394531 136.601562 196.511719 L 139.789062 200.242188 L 139.789062 201.398438 L 135.769531 201.398438 L 133.539062 198.675781 C 132.730469 199.0625 131.886719 199.363281 131.015625 199.570312 C 130.074219 199.773438 129.117188 199.871094 128.152344 199.867188 C 126.453125 199.875 124.761719 199.550781 123.183594 198.902344 C 121.761719 198.324219 120.480469 197.453125 119.425781 196.335938 C 118.375 195.207031 117.558594 193.875 117.035156 192.421875 C 116.457031 190.828125 116.171875 189.148438 116.1875 187.453125 C 116.167969 185.75 116.457031 184.054688 117.035156 182.453125 C 117.5625 180.992188 118.382812 179.65625 119.445312 178.527344 C 120.511719 177.414062 121.792969 176.539062 123.21875 175.957031 C 124.773438 175.328125 126.441406 175.015625 128.121094 175.046875 Z M 128.085938 178.632812 C 126.980469 178.617188 125.886719 178.847656 124.878906 179.304688 C 123.953125 179.730469 123.136719 180.359375 122.488281 181.144531 C 121.8125 181.96875 121.304688 182.914062 120.988281 183.929688 C 120.640625 185.0625 120.46875 186.242188 120.480469 187.425781 C 120.46875 188.621094 120.644531 189.808594 121.007812 190.949219 C 121.332031 191.972656 121.84375 192.929688 122.519531 193.769531 C 123.167969 194.558594 123.984375 195.203125 124.914062 195.640625 C 125.917969 196.101562 127.015625 196.332031 128.121094 196.3125 C 129.226562 196.320312 130.320312 196.09375 131.328125 195.640625 C 132.253906 195.222656 133.070312 194.601562 133.71875 193.828125 C 134.402344 193.003906 134.917969 192.050781 135.234375 191.027344 C 135.601562 189.863281 135.78125 188.648438 135.769531 187.425781 C 135.78125 186.222656 135.601562 185.027344 135.234375 183.878906 C 134.914062 182.859375 134.398438 181.914062 133.71875 181.09375 C 133.0625 180.316406 132.242188 179.695312 131.316406 179.273438 C 130.296875 178.828125 129.195312 178.609375 128.085938 178.632812 Z M 155.910156 196.476562 C 157.417969 196.570312 158.890625 195.992188 159.929688 194.898438 C 160.882812 193.851562 161.359375 192.238281 161.359375 190.066406 L 161.359375 175.507812 L 165.53125 175.507812 L 165.53125 190.199219 C 165.5625 191.703125 165.335938 193.203125 164.859375 194.632812 C 164.472656 195.773438 163.824219 196.8125 162.964844 197.65625 C 162.109375 198.464844 161.074219 199.058594 159.941406 199.382812 C 157.3125 200.113281 154.535156 200.113281 151.90625 199.382812 C 150.78125 199.058594 149.75 198.464844 148.898438 197.65625 C 148.039062 196.808594 147.390625 195.773438 147.003906 194.632812 C 146.527344 193.203125 146.300781 191.703125 146.332031 190.199219 L 146.332031 175.507812 L 150.519531 175.507812 L 150.519531 190.066406 C 150.519531 192.234375 150.996094 193.84375 151.953125 194.898438 C 152.976562 195.976562 154.425781 196.554688 155.910156 196.476562 Z M 169.710938 198.234375 L 178.179688 175.535156 L 184.464844 175.535156 L 192.84375 198.234375 L 192.84375 199.371094 L 188.722656 199.371094 L 186.328125 192.554688 L 175.992188 192.554688 L 173.566406 199.371094 L 169.679688 199.371094 Z M 177.25 188.992188 L 185.136719 188.992188 L 183.835938 185.203125 C 183.324219 183.726562 182.917969 182.523438 182.601562 181.582031 C 182.289062 180.636719 182.019531 179.835938 181.773438 179.125 L 180.746094 179.125 L 180.347656 180.257812 C 180.210938 180.632812 180.0625 181.054688 179.894531 181.515625 C 179.726562 181.976562 179.550781 182.511719 179.347656 183.113281 C 179.148438 183.714844 178.90625 184.40625 178.617188 185.203125 Z M 216.246094 199.371094 L 212.226562 199.371094 L 204.945312 189.996094 L 202.269531 189.996094 L 202.269531 199.371094 L 198.140625 199.371094 L 198.140625 175.507812 L 205.890625 175.507812 C 207.054688 175.507812 208.214844 175.589844 209.359375 175.757812 C 210.429688 175.910156 211.445312 176.304688 212.339844 176.910156 C 214.226562 178.148438 215.167969 180.019531 215.167969 182.519531 C 215.1875 183.488281 215.023438 184.449219 214.679688 185.359375 C 214.390625 186.121094 213.953125 186.820312 213.398438 187.417969 C 212.871094 187.980469 212.246094 188.449219 211.558594 188.796875 C 210.867188 189.152344 210.136719 189.417969 209.382812 189.59375 L 216.246094 198.234375 Z M 202.253906 186.410156 L 205.878906 186.410156 C 207.191406 186.480469 208.5 186.175781 209.648438 185.539062 C 210.589844 184.910156 211.121094 183.816406 211.03125 182.6875 C 211.140625 181.5625 210.59375 180.472656 209.628906 179.886719 C 208.46875 179.308594 207.175781 179.039062 205.878906 179.097656 L 202.253906 179.097656 Z M 221.566406 175.507812 L 237.023438 175.507812 L 237.023438 179.164062 L 225.636719 179.164062 L 225.636719 185.410156 L 236.207031 185.410156 L 236.207031 189 L 225.65625 189 L 225.65625 195.695312 L 237.257812 195.695312 L 237.257812 199.371094 L 221.566406 199.371094 Z M 246.5 192.523438 C 246.695312 193.640625 247.304688 194.648438 248.210938 195.332031 C 249.25 196.050781 250.492188 196.40625 251.753906 196.34375 C 252.953125 196.421875 254.140625 196.066406 255.101562 195.347656 C 255.878906 194.703125 256.3125 193.730469 256.28125 192.722656 C 256.292969 192.257812 256.1875 191.796875 255.964844 191.382812 C 255.746094 191.011719 255.445312 190.691406 255.082031 190.453125 C 254.652344 190.167969 254.179688 189.941406 253.6875 189.78125 L 251.828125 189.21875 L 250.03125 188.726562 C 249.046875 188.464844 248.089844 188.113281 247.171875 187.671875 C 246.382812 187.300781 245.652344 186.8125 245.007812 186.226562 C 244.433594 185.691406 243.976562 185.042969 243.667969 184.320312 C 243 182.617188 243.046875 180.714844 243.804688 179.050781 C 244.195312 178.214844 244.777344 177.476562 245.496094 176.894531 C 246.292969 176.257812 247.199219 175.777344 248.175781 175.484375 C 249.316406 175.121094 250.503906 174.945312 251.699219 174.964844 C 254.160156 174.964844 256.113281 175.546875 257.550781 176.707031 C 258.992188 177.867188 259.902344 179.554688 260.078125 181.394531 L 256.058594 181.722656 C 255.863281 180.800781 255.351562 179.980469 254.613281 179.398438 C 253.710938 178.792969 252.636719 178.503906 251.550781 178.566406 C 250.53125 178.507812 249.515625 178.804688 248.691406 179.410156 C 248.027344 179.933594 247.644531 180.742188 247.667969 181.585938 C 247.648438 182.03125 247.75 182.472656 247.960938 182.867188 C 248.175781 183.230469 248.472656 183.535156 248.828125 183.761719 C 249.257812 184.042969 249.71875 184.269531 250.203125 184.433594 C 250.746094 184.632812 251.363281 184.847656 252.054688 185.070312 L 253.75 185.597656 C 254.8125 185.933594 255.769531 186.28125 256.621094 186.644531 C 257.410156 186.976562 258.144531 187.429688 258.800781 187.980469 C 259.386719 188.480469 259.859375 189.105469 260.179688 189.808594 C 260.523438 190.640625 260.6875 191.535156 260.660156 192.433594 C 260.671875 193.484375 260.441406 194.527344 259.992188 195.472656 C 259.558594 196.386719 258.921875 197.1875 258.128906 197.816406 C 257.28125 198.484375 256.3125 198.988281 255.28125 199.304688 C 254.101562 199.671875 252.875 199.847656 251.640625 199.832031 C 249.460938 199.914062 247.308594 199.308594 245.488281 198.105469 C 243.785156 196.867188 242.679688 194.96875 242.445312 192.875 Z M 266.609375 175.507812 L 275.316406 175.507812 C 276.695312 175.472656 278.070312 175.667969 279.390625 176.078125 C 280.390625 176.386719 281.304688 176.921875 282.070312 177.636719 C 282.738281 178.289062 283.238281 179.09375 283.527344 179.980469 C 283.835938 180.917969 283.988281 181.898438 283.976562 182.886719 C 284.003906 184 283.792969 185.105469 283.359375 186.125 C 282.96875 187.023438 282.359375 187.804688 281.585938 188.402344 C 280.738281 189.03125 279.777344 189.484375 278.761719 189.742188 C 277.53125 190.058594 276.269531 190.207031 275 190.191406 L 270.78125 190.191406 L 270.78125 199.371094 L 266.621094 199.371094 Z M 270.769531 186.609375 L 274.753906 186.609375 C 275.425781 186.613281 276.101562 186.554688 276.761719 186.429688 C 277.328125 186.324219 277.867188 186.117188 278.355469 185.820312 C 278.808594 185.539062 279.175781 185.140625 279.421875 184.667969 C 279.691406 184.113281 279.824219 183.503906 279.804688 182.886719 C 279.824219 182.257812 279.695312 181.628906 279.421875 181.058594 C 279.183594 180.582031 278.820312 180.175781 278.371094 179.886719 C 277.886719 179.589844 277.355469 179.382812 276.796875 179.277344 C 276.136719 179.152344 275.460938 179.089844 274.789062 179.097656 L 270.734375 179.097656 Z M 285.128906 198.234375 L 293.609375 175.535156 L 299.890625 175.535156 L 308.261719 198.234375 L 308.261719 199.371094 L 304.179688 199.371094 L 301.789062 192.554688 L 291.410156 192.554688 L 289.019531 199.371094 L 285.128906 199.371094 Z M 292.679688 188.992188 L 300.554688 188.992188 L 299.253906 185.203125 C 298.746094 183.726562 298.335938 182.523438 298.027344 181.582031 L 297.199219 179.125 L 296.140625 179.125 L 295.738281 180.257812 C 295.605469 180.632812 295.457031 181.054688 295.289062 181.515625 C 295.121094 181.976562 294.941406 182.511719 294.742188 183.113281 C 294.539062 183.714844 294.296875 184.40625 294.011719 185.203125 Z M 333.59375 193.058594 C 333.21875 193.992188 332.722656 194.871094 332.121094 195.683594 C 331.5 196.511719 330.753906 197.238281 329.90625 197.835938 C 328.988281 198.484375 327.972656 198.976562 326.898438 199.296875 C 325.664062 199.667969 324.382812 199.847656 323.09375 199.832031 C 321.429688 199.859375 319.777344 199.542969 318.242188 198.902344 C 316.835938 198.316406 315.570312 197.441406 314.527344 196.332031 C 313.476562 195.199219 312.667969 193.863281 312.148438 192.410156 C 311.582031 190.824219 311.296875 189.152344 311.3125 187.472656 C 311.296875 185.792969 311.582031 184.121094 312.148438 182.539062 C 312.667969 181.078125 313.484375 179.738281 314.539062 178.601562 C 315.589844 177.480469 316.863281 176.59375 318.277344 175.992188 C 319.816406 175.34375 321.476562 175.019531 323.144531 175.046875 C 325.46875 174.964844 327.765625 175.605469 329.710938 176.875 C 331.441406 178.050781 332.75 179.75 333.457031 181.722656 L 329.230469 182.554688 C 328.703125 181.394531 327.867188 180.398438 326.816406 179.679688 C 325.707031 178.960938 324.402344 178.597656 323.078125 178.632812 C 321.996094 178.613281 320.917969 178.839844 319.9375 179.304688 C 319.035156 179.746094 318.242188 180.386719 317.613281 181.171875 C 316.957031 182.011719 316.464844 182.96875 316.167969 183.992188 C 315.824219 185.117188 315.65625 186.289062 315.664062 187.464844 C 315.65625 188.652344 315.828125 189.832031 316.179688 190.960938 C 316.496094 191.976562 317.003906 192.917969 317.675781 193.738281 C 318.332031 194.511719 319.144531 195.132812 320.066406 195.554688 C 321.066406 196.015625 322.160156 196.242188 323.261719 196.222656 C 324.628906 196.277344 325.980469 195.882812 327.097656 195.09375 C 328.085938 194.367188 328.886719 193.425781 329.441406 192.335938 Z M 339.214844 175.507812 L 354.671875 175.507812 L 354.671875 179.164062 L 343.285156 179.164062 L 343.285156 185.410156 L 353.875 185.410156 L 353.875 189 L 343.308594 189 L 343.308594 195.695312 L 354.910156 195.695312 L 354.910156 199.371094 L 339.214844 199.371094 Z M 339.214844 175.507812 "/></g></svg>