<svg xmlns="http://www.w3.org/2000/svg" xmlns:xlink="http://www.w3.org/1999/xlink" width="500" zoomAndPan="magnify" viewBox="0 0 375 374.999991" height="500" preserveAspectRatio="xMidYMid meet" version="1.2"><g id="82366ea2ce"><path style=" stroke:none;fill-rule:nonzero;fill:#000000;fill-opacity:1;" d="M 107.734375 175.933594 L 107.734375 228.554688 L 97.886719 228.554688 L 97.886719 172.246094 Z M 107.734375 175.933594 "/><path style=" stroke:none;fill-rule:nonzero;fill:#000000;fill-opacity:1;" d="M 68.476562 171.078125 C 68.476562 157.617188 75.796875 150.304688 84.410156 150.304688 C 93.027344 150.304688 94.257812 151.535156 103.976562 156.453125 C 113.691406 161.371094 116.21875 162.601562 121.144531 162.601562 C 126.066406 162.601562 128.464844 158.910156 128.464844 151.597656 L 137.015625 151.597656 C 138.246094 166.292969 129.695312 172.375 121.078125 172.375 C 112.464844 172.375 110.066406 171.144531 101.515625 166.292969 C 92.964844 161.4375 90.503906 160.140625 85.578125 160.140625 C 80.65625 160.140625 78.257812 163.832031 77.027344 172.375 Z M 68.476562 171.078125 "/><path style=" stroke:none;fill-rule:nonzero;fill:#000000;fill-opacity:1;" d="M 104.039062 260.402344 C 62.058594 260.402344 28.113281 226.421875 28.113281 184.542969 C 28.113281 142.667969 62.058594 108.621094 104.039062 108.621094 C 146.019531 108.621094 179.964844 142.601562 179.964844 184.476562 C 179.964844 226.421875 145.953125 260.335938 104.039062 260.402344 Z M 104.039062 113.539062 C 64.78125 113.539062 32.972656 145.320312 32.972656 184.542969 C 32.972656 223.769531 64.78125 255.546875 104.039062 255.546875 C 143.300781 255.546875 175.105469 223.769531 175.105469 184.542969 C 175.039062 145.320312 143.234375 113.539062 104.039062 113.539062 Z M 104.039062 113.539062 "/><path style=" stroke:none;fill-rule:nonzero;fill:#000000;fill-opacity:1;" d="M 198.722656 157.347656 C 201.980469 157.347656 204.664062 160.027344 204.664062 163.28125 C 204.664062 166.535156 201.980469 169.21875 198.722656 169.21875 C 195.464844 169.21875 192.78125 166.535156 192.78125 163.28125 C 192.78125 160.027344 195.464844 157.347656 198.722656 157.347656 Z M 202.746094 181.28125 L 202.746094 228.953125 L 194.507812 228.953125 L 194.507812 181.28125 Z M 202.746094 181.28125 "/><path style=" stroke:none;fill-rule:nonzero;fill:#000000;fill-opacity:1;" d="M 219.609375 145.285156 L 227.847656 145.285156 L 227.847656 228.953125 L 219.609375 228.953125 Z M 219.609375 145.285156 "/><path style=" stroke:none;fill-rule:nonzero;fill:#000000;fill-opacity:1;" d="M 280.929688 145.285156 L 289.171875 145.285156 L 289.171875 228.953125 L 280.929688 228.953125 L 280.929688 222.253906 C 278.246094 225.890625 273.074219 230.292969 264.644531 230.292969 C 252.570312 230.292969 241.457031 221.871094 241.457031 205.019531 C 241.457031 188.558594 252.570312 180.132812 264.644531 180.132812 C 273.839844 180.132812 278.824219 185.109375 280.929688 187.980469 Z M 249.886719 205.019531 C 249.886719 215.167969 255.636719 223.015625 265.601562 223.015625 C 275.757812 223.015625 281.507812 214.59375 281.507812 205.210938 C 281.507812 192.957031 273.074219 187.597656 265.601562 187.597656 C 257.359375 187.40625 249.886719 193.535156 249.886719 205.019531 Z M 249.886719 205.019531 "/><path style=" stroke:none;fill-rule:nonzero;fill:#000000;fill-opacity:1;" d="M 342.441406 181.28125 L 350.683594 181.28125 L 350.683594 228.953125 L 342.441406 228.953125 L 342.441406 222.253906 C 339.757812 225.890625 334.585938 230.292969 326.152344 230.292969 C 314.082031 230.292969 302.96875 221.871094 302.96875 205.019531 C 302.96875 188.558594 314.082031 180.132812 326.152344 180.132812 C 335.351562 180.132812 340.332031 185.109375 342.441406 187.980469 Z M 311.398438 205.019531 C 311.398438 215.167969 317.148438 223.015625 327.113281 223.015625 C 337.269531 223.015625 343.015625 214.59375 343.015625 205.210938 C 343.015625 192.957031 334.585938 187.597656 327.113281 187.597656 C 318.875 187.40625 311.398438 193.535156 311.398438 205.019531 Z M 311.398438 205.019531 "/></g></svg>