<?xml version="1.0" encoding="utf-8"?>
<!-- Generator: Adobe Illustrator 17.0.0, SVG Export Plug-In . SVG Version: 6.00 Build 0)  -->
<!DOCTYPE svg PUBLIC "-//W3C//DTD SVG 1.1//EN" "http://www.w3.org/Graphics/SVG/1.1/DTD/svg11.dtd">
<svg version="1.1" id="Слой_1" xmlns="http://www.w3.org/2000/svg" xmlns:xlink="http://www.w3.org/1999/xlink" x="0px" y="0px"
	 width="350px" height="180px" viewBox="0 0 350 180" enable-background="new 0 0 350 180" xml:space="preserve">
<g>
	<path d="M139.67,84.938v23.258h-4.348V83.307L139.67,84.938z"/>
	<path d="M122.334,82.792c0-5.95,3.233-9.183,7.037-9.183c3.805,0,4.348,0.544,8.64,2.718c4.291,2.174,5.407,2.718,7.581,2.718
		s3.233-1.631,3.233-4.863h3.776c0.544,6.494-3.233,9.183-7.037,9.183c-3.805,0-4.863-0.544-8.64-2.689
		c-3.776-2.146-4.863-2.718-7.037-2.718c-2.174,0-3.233,1.631-3.776,5.407L122.334,82.792z"/>
	<path d="M138.039,122.271c-18.538,0-33.528-15.019-33.528-33.528s14.99-33.557,33.528-33.557c18.538,0,33.528,15.019,33.528,33.528
		C171.567,107.252,156.548,122.242,138.039,122.271z M138.039,57.36c-17.336,0-31.383,14.046-31.383,31.383
		s14.046,31.383,31.383,31.383s31.383-14.046,31.383-31.383l0,0C169.393,71.406,155.347,57.36,138.039,57.36z"/>
	<path d="M179.851,76.723c1.439,0,2.623,1.185,2.623,2.623s-1.185,2.623-2.623,2.623c-1.439,0-2.623-1.185-2.623-2.623
		S178.412,76.723,179.851,76.723z M181.628,87.301v21.071h-3.639V87.301H181.628z"/>
	<path d="M192.713,71.392v36.98h-3.639v-36.98H192.713z"/>
	<path d="M216.154,71.392h3.639v36.98h-3.639v-2.962c-1.185,1.608-3.469,3.554-7.193,3.554c-5.331,0-10.239-3.723-10.239-11.17
		c0-7.277,4.908-11.001,10.239-11.001c4.062,0,6.262,2.2,7.193,3.469V71.392z M202.445,97.794c0,4.485,2.539,7.954,6.939,7.954
		c4.485,0,7.024-3.723,7.024-7.87c0-5.416-3.723-7.785-7.024-7.785C205.745,90.009,202.445,92.717,202.445,97.794z"/>
	<path d="M243.317,87.301h3.639v21.071h-3.639v-2.962c-1.185,1.608-3.469,3.554-7.193,3.554c-5.331,0-10.239-3.723-10.239-11.17
		c0-7.277,4.908-11.001,10.239-11.001c4.062,0,6.262,2.2,7.193,3.469V87.301z M229.608,97.794c0,4.485,2.539,7.954,6.939,7.954
		c4.485,0,7.024-3.723,7.024-7.87c0-5.416-3.723-7.785-7.024-7.785C232.909,90.009,229.608,92.717,229.608,97.794z"/>
</g>
</svg>
