<svg xmlns="http://www.w3.org/2000/svg" xmlns:xlink="http://www.w3.org/1999/xlink" width="500" zoomAndPan="magnify" viewBox="0 0 375 374.999991" height="500" preserveAspectRatio="xMidYMid meet" version="1.2"><defs><clipPath id="9904054208"><path d="M 168.480469 115 L 206.730469 115 L 206.730469 146 L 168.480469 146 Z M 168.480469 115 "/></clipPath><clipPath id="ba59666764"><path d="M 168.480469 114 L 206.730469 114 L 206.730469 146 L 168.480469 146 Z M 168.480469 114 "/></clipPath></defs><g id="80723f2ca0"><g clip-rule="nonzero" clip-path="url(#9904054208)"><path style=" stroke:none;fill-rule:nonzero;fill:#518095;fill-opacity:1;" d="M 170.394531 128.449219 L 172.304688 128.449219 L 172.304688 139.921875 L 170.394531 139.921875 C 170.140625 139.921875 169.894531 139.875 169.660156 139.777344 C 169.425781 139.679688 169.21875 139.542969 169.039062 139.363281 C 168.859375 139.183594 168.722656 138.976562 168.625 138.742188 C 168.527344 138.507812 168.480469 138.265625 168.480469 138.011719 L 168.480469 130.359375 C 168.480469 130.105469 168.527344 129.863281 168.625 129.628906 C 168.722656 129.394531 168.859375 129.1875 169.039062 129.007812 C 169.21875 128.828125 169.425781 128.691406 169.660156 128.59375 C 169.894531 128.496094 170.140625 128.449219 170.394531 128.449219 Z M 200.992188 125.578125 L 200.992188 141.835938 C 200.992188 142.34375 200.894531 142.828125 200.699219 143.296875 C 200.507812 143.765625 200.230469 144.179688 199.871094 144.539062 C 199.511719 144.898438 199.097656 145.171875 198.628906 145.367188 C 198.164062 145.5625 197.675781 145.660156 197.167969 145.660156 L 178.042969 145.660156 C 177.535156 145.660156 177.046875 145.5625 176.578125 145.367188 C 176.109375 145.171875 175.699219 144.898438 175.339844 144.539062 C 174.980469 144.179688 174.703125 143.765625 174.511719 143.296875 C 174.316406 142.828125 174.21875 142.34375 174.21875 141.835938 L 174.21875 125.578125 C 174.21875 125.265625 174.246094 124.953125 174.308594 124.644531 C 174.371094 124.339844 174.460938 124.039062 174.582031 123.75 C 174.703125 123.457031 174.847656 123.183594 175.023438 122.921875 C 175.199219 122.660156 175.394531 122.417969 175.617188 122.199219 C 175.839844 121.976562 176.082031 121.777344 176.34375 121.601562 C 176.601562 121.429688 176.878906 121.28125 177.167969 121.160156 C 177.460938 121.042969 177.757812 120.949219 178.066406 120.890625 C 178.375 120.828125 178.683594 120.796875 179 120.796875 L 185.691406 120.796875 L 185.691406 116.972656 C 185.691406 116.71875 185.742188 116.476562 185.839844 116.242188 C 185.933594 116.007812 186.074219 115.800781 186.253906 115.621094 C 186.433594 115.441406 186.640625 115.304688 186.875 115.207031 C 187.109375 115.109375 187.351562 115.058594 187.605469 115.058594 C 187.859375 115.058594 188.101562 115.109375 188.335938 115.207031 C 188.570312 115.304688 188.777344 115.441406 188.957031 115.621094 C 189.136719 115.800781 189.273438 116.007812 189.371094 116.242188 C 189.46875 116.476562 189.519531 116.71875 189.519531 116.972656 L 189.519531 120.796875 L 196.210938 120.796875 C 196.523438 120.796875 196.835938 120.828125 197.144531 120.890625 C 197.453125 120.949219 197.75 121.042969 198.042969 121.160156 C 198.332031 121.28125 198.605469 121.429688 198.867188 121.601562 C 199.128906 121.777344 199.371094 121.976562 199.59375 122.199219 C 199.816406 122.417969 200.011719 122.660156 200.1875 122.921875 C 200.363281 123.183594 200.507812 123.457031 200.628906 123.75 C 200.75 124.039062 200.839844 124.339844 200.902344 124.644531 C 200.960938 124.953125 200.992188 125.265625 200.992188 125.578125 Z M 184.257812 130.359375 C 184.257812 130.042969 184.199219 129.738281 184.078125 129.445312 C 183.953125 129.152344 183.78125 128.894531 183.558594 128.667969 C 183.332031 128.445312 183.074219 128.273438 182.78125 128.152344 C 182.488281 128.03125 182.183594 127.96875 181.867188 127.96875 C 181.550781 127.96875 181.246094 128.03125 180.953125 128.152344 C 180.660156 128.273438 180.402344 128.445312 180.175781 128.667969 C 179.953125 128.894531 179.78125 129.152344 179.660156 129.445312 C 179.539062 129.738281 179.476562 130.042969 179.476562 130.359375 C 179.476562 130.675781 179.539062 130.980469 179.660156 131.273438 C 179.78125 131.566406 179.953125 131.828125 180.175781 132.050781 C 180.402344 132.273438 180.660156 132.449219 180.953125 132.570312 C 181.246094 132.691406 181.550781 132.75 181.867188 132.75 C 182.183594 132.75 182.488281 132.691406 182.78125 132.570312 C 183.074219 132.449219 183.332031 132.273438 183.558594 132.050781 C 183.78125 131.828125 183.953125 131.566406 184.078125 131.273438 C 184.199219 130.980469 184.257812 130.675781 184.257812 130.359375 Z M 183.78125 138.011719 L 179.957031 138.011719 L 179.957031 139.921875 L 183.78125 139.921875 Z M 189.519531 138.011719 L 185.691406 138.011719 L 185.691406 139.921875 L 189.519531 139.921875 Z M 195.734375 130.359375 C 195.734375 130.042969 195.671875 129.738281 195.550781 129.445312 C 195.429688 129.152344 195.257812 128.894531 195.03125 128.667969 C 194.808594 128.445312 194.550781 128.273438 194.257812 128.152344 C 193.964844 128.03125 193.660156 127.96875 193.34375 127.96875 C 193.027344 127.96875 192.71875 128.03125 192.429688 128.152344 C 192.136719 128.273438 191.875 128.445312 191.652344 128.667969 C 191.429688 128.894531 191.253906 129.152344 191.132812 129.445312 C 191.011719 129.738281 190.953125 130.042969 190.953125 130.359375 C 190.953125 130.675781 191.011719 130.980469 191.132812 131.273438 C 191.253906 131.566406 191.429688 131.828125 191.652344 132.050781 C 191.875 132.273438 192.136719 132.449219 192.429688 132.570312 C 192.71875 132.691406 193.027344 132.75 193.34375 132.75 C 193.660156 132.75 193.964844 132.691406 194.257812 132.570312 C 194.550781 132.449219 194.808594 132.273438 195.03125 132.050781 C 195.257812 131.828125 195.429688 131.566406 195.550781 131.273438 C 195.671875 130.980469 195.734375 130.675781 195.734375 130.359375 Z M 195.253906 138.011719 L 191.429688 138.011719 L 191.429688 139.921875 L 195.253906 139.921875 Z M 206.730469 130.359375 L 206.730469 138.011719 C 206.730469 138.265625 206.683594 138.507812 206.585938 138.742188 C 206.488281 138.976562 206.351562 139.183594 206.171875 139.363281 C 205.992188 139.542969 205.785156 139.679688 205.550781 139.777344 C 205.316406 139.875 205.070312 139.921875 204.816406 139.921875 L 202.90625 139.921875 L 202.90625 128.449219 L 204.816406 128.449219 C 205.070312 128.449219 205.316406 128.496094 205.550781 128.59375 C 205.785156 128.691406 205.992188 128.828125 206.171875 129.007812 C 206.351562 129.1875 206.488281 129.394531 206.585938 129.628906 C 206.683594 129.863281 206.730469 130.105469 206.730469 130.359375 Z M 206.730469 130.359375 "/></g><g clip-rule="nonzero" clip-path="url(#ba59666764)"><path style="fill:none;stroke-width:1;stroke-linecap:butt;stroke-linejoin:miter;stroke:#518095;stroke-opacity:1;stroke-miterlimit:4;" d="M 32.032131 224.025149 L 63.992917 224.025149 L 63.992917 415.985944 L 32.032131 415.985944 C 27.783765 415.985944 23.666117 415.20163 19.744548 413.567643 C 15.82298 411.933656 12.358927 409.646074 9.352391 406.639538 C 6.345855 403.633002 4.058273 400.16895 2.424286 396.247381 C 0.790299 392.325812 0.00598527 388.273524 0.00598527 384.025158 L 0.00598527 255.985935 C 0.00598527 251.737569 0.790299 247.685281 2.424286 243.763712 C 4.058273 239.842143 6.345855 236.378091 9.352391 233.371555 C 12.358927 230.365019 15.82298 228.077437 19.744548 226.44345 C 23.666117 224.809463 27.783765 224.025149 32.032131 224.025149 Z M 543.992944 175.985931 L 543.992944 448.01209 C 543.992944 456.508822 542.358957 464.613398 539.090983 472.456535 C 535.888368 480.299673 531.247845 487.227778 525.234773 493.24085 C 519.2217 499.253923 512.293595 503.829086 504.450458 507.09706 C 496.67268 510.365034 488.502744 511.999021 480.006012 511.999021 L 160.005994 511.999021 C 151.509262 511.999021 143.339327 510.365034 135.496189 507.09706 C 127.653051 503.829086 120.790306 499.253923 114.777233 493.24085 C 108.764161 487.227778 104.123638 480.299673 100.921024 472.456535 C 97.65305 464.613398 96.019063 456.508822 96.019063 448.01209 L 96.019063 175.985931 C 96.019063 170.757172 96.476579 165.528414 97.522331 160.365015 C 98.568082 155.266975 100.07135 150.234295 102.097494 145.397694 C 104.123638 140.495733 106.541939 135.920569 109.483116 131.541484 C 112.424292 127.162399 115.692266 123.110111 119.417757 119.44998 C 123.143247 115.724489 127.195535 112.391156 131.57462 109.449979 C 135.888346 106.574162 140.528869 104.090502 145.36547 102.064358 C 150.267432 100.103574 155.234752 98.534946 160.398151 97.554554 C 165.56155 96.508802 170.724949 95.985926 176.019067 95.985926 L 287.979858 95.985926 L 287.979858 31.998995 C 287.979858 27.750628 288.829531 23.698341 290.463518 19.776772 C 292.032145 15.855203 294.385087 12.39115 297.391623 9.384614 C 300.398159 6.378078 303.862211 4.090496 307.78378 2.456509 C 311.705349 0.822522 315.757637 -0.027151 320.006003 -0.027151 C 324.254369 -0.027151 328.306657 0.822522 332.228226 2.456509 C 336.149795 4.090496 339.613847 6.378078 342.620383 9.384614 C 345.62692 12.39115 347.914501 15.855203 349.548488 19.776772 C 351.182475 23.698341 352.032149 27.750628 352.032149 31.998995 L 352.032149 95.985926 L 463.992939 95.985926 C 469.221698 95.985926 474.450456 96.508802 479.613855 97.554554 C 484.777254 98.534946 489.744575 100.103574 494.646536 102.064358 C 499.483137 104.090502 504.058301 106.574162 508.437386 109.449979 C 512.816471 112.391156 516.868759 115.724489 520.59425 119.44998 C 524.31974 123.110111 527.587714 127.162399 530.528891 131.541484 C 533.470067 135.920569 535.888368 140.495733 537.914512 145.397694 C 539.940656 150.234295 541.443924 155.266975 542.489676 160.365015 C 543.470068 165.528414 543.992944 170.757172 543.992944 175.985931 Z M 263.992928 255.985935 C 263.992928 250.691817 263.012536 245.593778 260.986392 240.691817 C 258.894889 235.789856 256.019071 231.47613 252.293581 227.68528 C 248.502731 223.95979 244.189005 221.083972 239.287044 219.057829 C 234.385083 217.031685 229.287044 215.985933 223.992926 215.985933 C 218.698808 215.985933 213.600768 217.031685 208.698807 219.057829 C 203.796846 221.083972 199.483121 223.95979 195.692271 227.68528 C 191.96678 231.47613 189.090963 235.789856 187.064819 240.691817 C 185.038675 245.593778 183.992924 250.691817 183.992924 255.985935 C 183.992924 261.280053 185.038675 266.378093 187.064819 271.280054 C 189.090963 276.182015 191.96678 280.5611 195.692271 284.28659 C 199.483121 288.012081 203.796846 290.953257 208.698807 292.979401 C 213.600768 295.005545 218.698808 295.985937 223.992926 295.985937 C 229.287044 295.985937 234.385083 295.005545 239.287044 292.979401 C 244.189005 290.953257 248.502731 288.012081 252.293581 284.28659 C 256.019071 280.5611 258.894889 276.182015 260.986392 271.280054 C 263.012536 266.378093 263.992928 261.280053 263.992928 255.985935 Z M 256.019071 384.025158 L 192.03214 384.025158 L 192.03214 415.985944 L 256.019071 415.985944 Z M 352.032149 384.025158 L 287.979858 384.025158 L 287.979858 415.985944 L 352.032149 415.985944 Z M 456.019083 255.985935 C 456.019083 250.691817 454.973331 245.593778 452.947187 240.691817 C 450.921043 235.789856 448.045226 231.47613 444.254376 227.68528 C 440.528886 223.95979 436.21516 221.083972 431.313199 219.057829 C 426.411238 217.031685 421.313198 215.985933 416.01908 215.985933 C 410.724962 215.985933 405.561563 217.031685 400.724962 219.057829 C 395.823001 221.083972 391.443916 223.95979 387.718425 227.68528 C 383.992935 231.47613 381.051758 235.789856 379.025614 240.691817 C 376.99947 245.593778 376.019078 250.691817 376.019078 255.985935 C 376.019078 261.280053 376.99947 266.378093 379.025614 271.280054 C 381.051758 276.182015 383.992935 280.5611 387.718425 284.28659 C 391.443916 288.012081 395.823001 290.953257 400.724962 292.979401 C 405.561563 295.005545 410.724962 295.985937 416.01908 295.985937 C 421.313198 295.985937 426.411238 295.005545 431.313199 292.979401 C 436.21516 290.953257 440.528886 288.012081 444.254376 284.28659 C 448.045226 280.5611 450.921043 276.182015 452.947187 271.280054 C 454.973331 266.378093 456.019083 261.280053 456.019083 255.985935 Z M 447.979866 384.025158 L 383.992935 384.025158 L 383.992935 415.985944 L 447.979866 415.985944 Z M 640.006021 255.985935 L 640.006021 384.025158 C 640.006021 388.273524 639.221707 392.325812 637.58772 396.247381 C 635.953733 400.16895 633.666151 403.633002 630.659615 406.639538 C 627.653079 409.646074 624.189027 411.933656 620.267458 413.567643 C 616.345889 415.20163 612.228242 415.985944 607.979875 415.985944 L 576.019089 415.985944 L 576.019089 224.025149 L 607.979875 224.025149 C 612.228242 224.025149 616.345889 224.809463 620.267458 226.44345 C 624.189027 228.077437 627.653079 230.365019 630.659615 233.371555 C 633.666151 236.378091 635.953733 239.842143 637.58772 243.763712 C 639.221707 247.685281 640.006021 251.737569 640.006021 255.985935 Z M 640.006021 255.985935 " transform="matrix(0.0597656,0,0,0.0597656,168.480111,115.060216)"/></g><g style="fill:#8cb0c0;fill-opacity:1;"><g transform="translate(37.453127, 209.624986)"><path style="stroke:none" d="M 23.875 -9.28125 L 23.875 0 L 18.296875 0 C 14.335938 0 11.25 -0.96875 9.03125 -2.90625 C 6.8125 -4.851562 5.703125 -8.023438 5.703125 -12.421875 L 5.703125 -26.625 L 1.34375 -26.625 L 1.34375 -35.71875 L 5.703125 -35.71875 L 5.703125 -44.421875 L 16.640625 -44.421875 L 16.640625 -35.71875 L 23.8125 -35.71875 L 23.8125 -26.625 L 16.640625 -26.625 L 16.640625 -12.28125 C 16.640625 -11.21875 16.894531 -10.453125 17.40625 -9.984375 C 17.914062 -9.515625 18.769531 -9.28125 19.96875 -9.28125 Z M 23.875 -9.28125 "/></g></g><g style="fill:#8cb0c0;fill-opacity:1;"><g transform="translate(63.435528, 209.624986)"><path style="stroke:none" d="M 14.90625 -29.765625 C 16.1875 -31.722656 17.785156 -33.265625 19.703125 -34.390625 C 21.628906 -35.523438 23.765625 -36.09375 26.109375 -36.09375 L 26.109375 -24.515625 L 23.109375 -24.515625 C 20.378906 -24.515625 18.328125 -23.925781 16.953125 -22.75 C 15.585938 -21.570312 14.90625 -19.515625 14.90625 -16.578125 L 14.90625 0 L 3.96875 0 L 3.96875 -35.71875 L 14.90625 -35.71875 Z M 14.90625 -29.765625 "/></g></g><g style="fill:#8cb0c0;fill-opacity:1;"><g transform="translate(90.825851, 209.624986)"><path style="stroke:none" d="M 20.21875 0.515625 C 16.71875 0.515625 13.570312 -0.226562 10.78125 -1.71875 C 7.988281 -3.21875 5.789062 -5.351562 4.1875 -8.125 C 2.59375 -10.894531 1.796875 -14.140625 1.796875 -17.859375 C 1.796875 -21.523438 2.601562 -24.753906 4.21875 -27.546875 C 5.84375 -30.347656 8.0625 -32.492188 10.875 -33.984375 C 13.695312 -35.472656 16.859375 -36.21875 20.359375 -36.21875 C 23.847656 -36.21875 27 -35.472656 29.8125 -33.984375 C 32.632812 -32.492188 34.851562 -30.347656 36.46875 -27.546875 C 38.09375 -24.753906 38.90625 -21.523438 38.90625 -17.859375 C 38.90625 -14.191406 38.082031 -10.957031 36.4375 -8.15625 C 34.800781 -5.363281 32.5625 -3.21875 29.71875 -1.71875 C 26.882812 -0.226562 23.71875 0.515625 20.21875 0.515625 Z M 20.21875 -8.953125 C 22.3125 -8.953125 24.09375 -9.71875 25.5625 -11.25 C 27.039062 -12.789062 27.78125 -14.992188 27.78125 -17.859375 C 27.78125 -20.710938 27.0625 -22.90625 25.625 -24.4375 C 24.195312 -25.976562 22.441406 -26.75 20.359375 -26.75 C 18.222656 -26.75 16.445312 -25.988281 15.03125 -24.46875 C 13.625 -22.957031 12.921875 -20.753906 12.921875 -17.859375 C 12.921875 -14.992188 13.613281 -12.789062 15 -11.25 C 16.394531 -9.71875 18.132812 -8.953125 20.21875 -8.953125 Z M 20.21875 -8.953125 "/></g></g><g style="fill:#8cb0c0;fill-opacity:1;"><g transform="translate(131.591351, 209.624986)"><path style="stroke:none" d="M 20.21875 0.515625 C 16.71875 0.515625 13.570312 -0.226562 10.78125 -1.71875 C 7.988281 -3.21875 5.789062 -5.351562 4.1875 -8.125 C 2.59375 -10.894531 1.796875 -14.140625 1.796875 -17.859375 C 1.796875 -21.523438 2.601562 -24.753906 4.21875 -27.546875 C 5.84375 -30.347656 8.0625 -32.492188 10.875 -33.984375 C 13.695312 -35.472656 16.859375 -36.21875 20.359375 -36.21875 C 23.847656 -36.21875 27 -35.472656 29.8125 -33.984375 C 32.632812 -32.492188 34.851562 -30.347656 36.46875 -27.546875 C 38.09375 -24.753906 38.90625 -21.523438 38.90625 -17.859375 C 38.90625 -14.191406 38.082031 -10.957031 36.4375 -8.15625 C 34.800781 -5.363281 32.5625 -3.21875 29.71875 -1.71875 C 26.882812 -0.226562 23.71875 0.515625 20.21875 0.515625 Z M 20.21875 -8.953125 C 22.3125 -8.953125 24.09375 -9.71875 25.5625 -11.25 C 27.039062 -12.789062 27.78125 -14.992188 27.78125 -17.859375 C 27.78125 -20.710938 27.0625 -22.90625 25.625 -24.4375 C 24.195312 -25.976562 22.441406 -26.75 20.359375 -26.75 C 18.222656 -26.75 16.445312 -25.988281 15.03125 -24.46875 C 13.625 -22.957031 12.921875 -20.753906 12.921875 -17.859375 C 12.921875 -14.992188 13.613281 -12.789062 15 -11.25 C 16.394531 -9.71875 18.132812 -8.953125 20.21875 -8.953125 Z M 20.21875 -8.953125 "/></g></g><g style="fill:#8cb0c0;fill-opacity:1;"><g transform="translate(172.356851, 209.624986)"><path style="stroke:none" d="M 14.90625 -30.65625 C 15.976562 -32.320312 17.453125 -33.664062 19.328125 -34.6875 C 21.203125 -35.707031 23.398438 -36.21875 25.921875 -36.21875 C 28.867188 -36.21875 31.535156 -35.472656 33.921875 -33.984375 C 36.304688 -32.492188 38.191406 -30.359375 39.578125 -27.578125 C 40.960938 -24.804688 41.65625 -21.585938 41.65625 -17.921875 C 41.65625 -14.253906 40.960938 -11.019531 39.578125 -8.21875 C 38.191406 -5.425781 36.304688 -3.269531 33.921875 -1.75 C 31.535156 -0.238281 28.867188 0.515625 25.921875 0.515625 C 23.441406 0.515625 21.253906 0.00390625 19.359375 -1.015625 C 17.460938 -2.046875 15.976562 -3.367188 14.90625 -4.984375 L 14.90625 17.03125 L 3.96875 17.03125 L 3.96875 -35.71875 L 14.90625 -35.71875 Z M 30.53125 -17.921875 C 30.53125 -20.648438 29.769531 -22.789062 28.25 -24.34375 C 26.738281 -25.90625 24.875 -26.6875 22.65625 -26.6875 C 20.476562 -26.6875 18.628906 -25.894531 17.109375 -24.3125 C 15.597656 -22.738281 14.84375 -20.585938 14.84375 -17.859375 C 14.84375 -15.128906 15.597656 -12.972656 17.109375 -11.390625 C 18.628906 -9.816406 20.476562 -9.03125 22.65625 -9.03125 C 24.832031 -9.03125 26.6875 -9.828125 28.21875 -11.421875 C 29.757812 -13.023438 30.53125 -15.191406 30.53125 -17.921875 Z M 30.53125 -17.921875 "/></g></g><g style="fill:#8cb0c0;fill-opacity:1;"><g transform="translate(215.81018, 209.624986)"><path style="stroke:none" d="M 1.796875 -17.921875 C 1.796875 -21.585938 2.488281 -24.804688 3.875 -27.578125 C 5.257812 -30.359375 7.144531 -32.492188 9.53125 -33.984375 C 11.925781 -35.472656 14.59375 -36.21875 17.53125 -36.21875 C 20.050781 -36.21875 22.257812 -35.707031 24.15625 -34.6875 C 26.0625 -33.664062 27.523438 -32.320312 28.546875 -30.65625 L 28.546875 -35.71875 L 39.484375 -35.71875 L 39.484375 0 L 28.546875 0 L 28.546875 -5.0625 C 27.472656 -3.394531 25.988281 -2.046875 24.09375 -1.015625 C 22.195312 0.00390625 19.988281 0.515625 17.46875 0.515625 C 14.570312 0.515625 11.925781 -0.238281 9.53125 -1.75 C 7.144531 -3.269531 5.257812 -5.425781 3.875 -8.21875 C 2.488281 -11.019531 1.796875 -14.253906 1.796875 -17.921875 Z M 28.546875 -17.859375 C 28.546875 -20.585938 27.785156 -22.738281 26.265625 -24.3125 C 24.753906 -25.894531 22.910156 -26.6875 20.734375 -26.6875 C 18.554688 -26.6875 16.707031 -25.90625 15.1875 -24.34375 C 13.675781 -22.789062 12.921875 -20.648438 12.921875 -17.921875 C 12.921875 -15.191406 13.675781 -13.023438 15.1875 -11.421875 C 16.707031 -9.828125 18.554688 -9.03125 20.734375 -9.03125 C 22.910156 -9.03125 24.753906 -9.816406 26.265625 -11.390625 C 27.785156 -12.972656 28.546875 -15.128906 28.546875 -17.859375 Z M 28.546875 -17.859375 "/></g></g><g style="fill:#8cb0c0;fill-opacity:1;"><g transform="translate(259.263508, 209.624986)"><path style="stroke:none" d="M 1.796875 -17.859375 C 1.796875 -21.566406 2.550781 -24.804688 4.0625 -27.578125 C 5.582031 -30.359375 7.695312 -32.492188 10.40625 -33.984375 C 13.113281 -35.472656 16.21875 -36.21875 19.71875 -36.21875 C 24.195312 -36.21875 27.9375 -35.046875 30.9375 -32.703125 C 33.945312 -30.359375 35.921875 -27.050781 36.859375 -22.78125 L 25.21875 -22.78125 C 24.238281 -25.507812 22.335938 -26.875 19.515625 -26.875 C 17.515625 -26.875 15.914062 -26.09375 14.71875 -24.53125 C 13.519531 -22.976562 12.921875 -20.753906 12.921875 -17.859375 C 12.921875 -14.953125 13.519531 -12.71875 14.71875 -11.15625 C 15.914062 -9.601562 17.515625 -8.828125 19.515625 -8.828125 C 22.335938 -8.828125 24.238281 -10.191406 25.21875 -12.921875 L 36.859375 -12.921875 C 35.921875 -8.742188 33.9375 -5.457031 30.90625 -3.0625 C 27.882812 -0.675781 24.15625 0.515625 19.71875 0.515625 C 16.21875 0.515625 13.113281 -0.226562 10.40625 -1.71875 C 7.695312 -3.21875 5.582031 -5.351562 4.0625 -8.125 C 2.550781 -10.894531 1.796875 -14.140625 1.796875 -17.859375 Z M 1.796875 -17.859375 "/></g></g><g style="fill:#8cb0c0;fill-opacity:1;"><g transform="translate(297.981134, 209.624986)"><path style="stroke:none" d="M 25.796875 0 L 14.90625 -14.96875 L 14.90625 0 L 3.96875 0 L 3.96875 -47.359375 L 14.90625 -47.359375 L 14.90625 -21.1875 L 25.734375 -35.71875 L 39.234375 -35.71875 L 24.390625 -17.796875 L 39.359375 0 Z M 25.796875 0 "/></g></g><g style="fill:#8cb0c0;fill-opacity:1;"><g transform="translate(76.400394, 142.54825)"><path style="stroke:none" d="M 0.75 -7.453125 C 0.75 -9.003906 1.0625 -10.359375 1.6875 -11.515625 C 2.320312 -12.679688 3.207031 -13.570312 4.34375 -14.1875 C 5.476562 -14.8125 6.773438 -15.125 8.234375 -15.125 C 10.109375 -15.125 11.671875 -14.632812 12.921875 -13.65625 C 14.179688 -12.675781 15.007812 -11.296875 15.40625 -9.515625 L 10.53125 -9.515625 C 10.125 -10.660156 9.332031 -11.234375 8.15625 -11.234375 C 7.3125 -11.234375 6.640625 -10.90625 6.140625 -10.25 C 5.648438 -9.601562 5.40625 -8.671875 5.40625 -7.453125 C 5.40625 -6.242188 5.648438 -5.3125 6.140625 -4.65625 C 6.640625 -4.007812 7.3125 -3.6875 8.15625 -3.6875 C 9.332031 -3.6875 10.125 -4.257812 10.53125 -5.40625 L 15.40625 -5.40625 C 15.007812 -3.65625 14.175781 -2.28125 12.90625 -1.28125 C 11.644531 -0.28125 10.085938 0.21875 8.234375 0.21875 C 6.773438 0.21875 5.476562 -0.09375 4.34375 -0.71875 C 3.207031 -1.34375 2.320312 -2.234375 1.6875 -3.390625 C 1.0625 -4.554688 0.75 -5.910156 0.75 -7.453125 Z M 0.75 -7.453125 "/></g></g><g style="fill:#8cb0c0;fill-opacity:1;"><g transform="translate(92.577004, 142.54825)"><path style="stroke:none" d="M 10.828125 -15.078125 C 12.535156 -15.078125 13.90625 -14.507812 14.9375 -13.375 C 15.976562 -12.25 16.5 -10.695312 16.5 -8.71875 L 16.5 0 L 11.953125 0 L 11.953125 -8.09375 C 11.953125 -9.09375 11.691406 -9.867188 11.171875 -10.421875 C 10.660156 -10.972656 9.96875 -11.25 9.09375 -11.25 C 8.21875 -11.25 7.519531 -10.972656 7 -10.421875 C 6.488281 -9.867188 6.234375 -9.09375 6.234375 -8.09375 L 6.234375 0 L 1.65625 0 L 1.65625 -19.78125 L 6.234375 -19.78125 L 6.234375 -12.90625 C 6.691406 -13.570312 7.320312 -14.097656 8.125 -14.484375 C 8.925781 -14.878906 9.828125 -15.078125 10.828125 -15.078125 Z M 10.828125 -15.078125 "/></g></g><g style="fill:#8cb0c0;fill-opacity:1;"><g transform="translate(110.598549, 142.54825)"><path style="stroke:none" d="M 0.75 -7.484375 C 0.75 -9.015625 1.035156 -10.359375 1.609375 -11.515625 C 2.191406 -12.679688 2.984375 -13.570312 3.984375 -14.1875 C 4.984375 -14.8125 6.097656 -15.125 7.328125 -15.125 C 8.378906 -15.125 9.300781 -14.910156 10.09375 -14.484375 C 10.882812 -14.054688 11.492188 -13.5 11.921875 -12.8125 L 11.921875 -14.921875 L 16.5 -14.921875 L 16.5 0 L 11.921875 0 L 11.921875 -2.109375 C 11.472656 -1.410156 10.851562 -0.847656 10.0625 -0.421875 C 9.269531 0.00390625 8.347656 0.21875 7.296875 0.21875 C 6.085938 0.21875 4.984375 -0.0976562 3.984375 -0.734375 C 2.984375 -1.367188 2.191406 -2.269531 1.609375 -3.4375 C 1.035156 -4.601562 0.75 -5.953125 0.75 -7.484375 Z M 11.921875 -7.453125 C 11.921875 -8.597656 11.601562 -9.5 10.96875 -10.15625 C 10.34375 -10.8125 9.570312 -11.140625 8.65625 -11.140625 C 7.75 -11.140625 6.976562 -10.816406 6.34375 -10.171875 C 5.71875 -9.523438 5.40625 -8.628906 5.40625 -7.484375 C 5.40625 -6.347656 5.71875 -5.441406 6.34375 -4.765625 C 6.976562 -4.097656 7.75 -3.765625 8.65625 -3.765625 C 9.570312 -3.765625 10.34375 -4.09375 10.96875 -4.75 C 11.601562 -5.414062 11.921875 -6.316406 11.921875 -7.453125 Z M 11.921875 -7.453125 "/></g></g><g style="fill:#8cb0c0;fill-opacity:1;"><g transform="translate(128.753783, 142.54825)"><path style="stroke:none" d="M 9.96875 -3.875 L 9.96875 0 L 7.640625 0 C 5.984375 0 4.691406 -0.40625 3.765625 -1.21875 C 2.835938 -2.03125 2.375 -3.351562 2.375 -5.1875 L 2.375 -11.125 L 0.5625 -11.125 L 0.5625 -14.921875 L 2.375 -14.921875 L 2.375 -18.546875 L 6.953125 -18.546875 L 6.953125 -14.921875 L 9.9375 -14.921875 L 9.9375 -11.125 L 6.953125 -11.125 L 6.953125 -5.140625 C 6.953125 -4.691406 7.054688 -4.367188 7.265625 -4.171875 C 7.484375 -3.972656 7.84375 -3.875 8.34375 -3.875 Z M 9.96875 -3.875 "/></g></g><g style="fill:#8cb0c0;fill-opacity:1;"><g transform="translate(235.839976, 142.54825)"><path style="stroke:none" d="M 9.140625 -11.125 L 6.6875 -11.125 L 6.6875 0 L 2.109375 0 L 2.109375 -11.125 L 0.453125 -11.125 L 0.453125 -14.921875 L 2.109375 -14.921875 L 2.109375 -15.34375 C 2.109375 -17.175781 2.632812 -18.566406 3.6875 -19.515625 C 4.738281 -20.472656 6.28125 -20.953125 8.3125 -20.953125 C 8.65625 -20.953125 8.90625 -20.945312 9.0625 -20.9375 L 9.0625 -17.0625 C 8.1875 -17.113281 7.570312 -16.988281 7.21875 -16.6875 C 6.863281 -16.382812 6.6875 -15.835938 6.6875 -15.046875 L 6.6875 -14.921875 L 9.140625 -14.921875 Z M 9.140625 -11.125 "/></g></g><g style="fill:#8cb0c0;fill-opacity:1;"><g transform="translate(245.465729, 142.54825)"><path style="stroke:none" d="M 6.234375 -19.78125 L 6.234375 0 L 1.65625 0 L 1.65625 -19.78125 Z M 6.234375 -19.78125 "/></g></g><g style="fill:#8cb0c0;fill-opacity:1;"><g transform="translate(253.353495, 142.54825)"><path style="stroke:none" d="M 8.453125 0.21875 C 6.984375 0.21875 5.664062 -0.09375 4.5 -0.71875 C 3.332031 -1.34375 2.414062 -2.234375 1.75 -3.390625 C 1.082031 -4.554688 0.75 -5.910156 0.75 -7.453125 C 0.75 -8.992188 1.085938 -10.347656 1.765625 -11.515625 C 2.441406 -12.679688 3.367188 -13.570312 4.546875 -14.1875 C 5.722656 -14.8125 7.039062 -15.125 8.5 -15.125 C 9.957031 -15.125 11.273438 -14.8125 12.453125 -14.1875 C 13.628906 -13.570312 14.554688 -12.679688 15.234375 -11.515625 C 15.910156 -10.347656 16.25 -8.992188 16.25 -7.453125 C 16.25 -5.921875 15.90625 -4.570312 15.21875 -3.40625 C 14.539062 -2.238281 13.609375 -1.34375 12.421875 -0.71875 C 11.234375 -0.09375 9.910156 0.21875 8.453125 0.21875 Z M 8.453125 -3.75 C 9.328125 -3.75 10.070312 -4.066406 10.6875 -4.703125 C 11.300781 -5.347656 11.609375 -6.265625 11.609375 -7.453125 C 11.609375 -8.648438 11.304688 -9.566406 10.703125 -10.203125 C 10.109375 -10.847656 9.375 -11.171875 8.5 -11.171875 C 7.613281 -11.171875 6.875 -10.851562 6.28125 -10.21875 C 5.695312 -9.59375 5.40625 -8.671875 5.40625 -7.453125 C 5.40625 -6.265625 5.691406 -5.347656 6.265625 -4.703125 C 6.847656 -4.066406 7.578125 -3.75 8.453125 -3.75 Z M 8.453125 -3.75 "/></g></g><g style="fill:#8cb0c0;fill-opacity:1;"><g transform="translate(270.385728, 142.54825)"><path style="stroke:none" d="M 23.078125 -14.921875 L 19.03125 0 L 13.984375 0 L 11.625 -9.671875 L 9.203125 0 L 4.171875 0 L 0.109375 -14.921875 L 4.671875 -14.921875 L 6.796875 -4.25 L 9.296875 -14.921875 L 14.140625 -14.921875 L 16.6875 -4.296875 L 18.765625 -14.921875 Z M 23.078125 -14.921875 "/></g></g><g style="fill:#8cb0c0;fill-opacity:1;"><g transform="translate(293.541007, 142.54825)"><path style="stroke:none" d="M 7.71875 0.21875 C 6.425781 0.21875 5.269531 -0.00390625 4.25 -0.453125 C 3.238281 -0.898438 2.4375 -1.507812 1.84375 -2.28125 C 1.257812 -3.0625 0.929688 -3.929688 0.859375 -4.890625 L 5.375 -4.890625 C 5.425781 -4.367188 5.664062 -3.945312 6.09375 -3.625 C 6.519531 -3.3125 7.046875 -3.15625 7.671875 -3.15625 C 8.242188 -3.15625 8.6875 -3.265625 9 -3.484375 C 9.3125 -3.710938 9.46875 -4.003906 9.46875 -4.359375 C 9.46875 -4.785156 9.242188 -5.097656 8.796875 -5.296875 C 8.347656 -5.503906 7.625 -5.734375 6.625 -5.984375 C 5.5625 -6.234375 4.671875 -6.492188 3.953125 -6.765625 C 3.242188 -7.046875 2.628906 -7.484375 2.109375 -8.078125 C 1.597656 -8.679688 1.34375 -9.488281 1.34375 -10.5 C 1.34375 -11.363281 1.578125 -12.144531 2.046875 -12.84375 C 2.515625 -13.550781 3.207031 -14.109375 4.125 -14.515625 C 5.039062 -14.921875 6.132812 -15.125 7.40625 -15.125 C 9.28125 -15.125 10.753906 -14.660156 11.828125 -13.734375 C 12.910156 -12.804688 13.53125 -11.578125 13.6875 -10.046875 L 9.46875 -10.046875 C 9.394531 -10.566406 9.164062 -10.976562 8.78125 -11.28125 C 8.394531 -11.582031 7.890625 -11.734375 7.265625 -11.734375 C 6.734375 -11.734375 6.320312 -11.628906 6.03125 -11.421875 C 5.75 -11.222656 5.609375 -10.945312 5.609375 -10.59375 C 5.609375 -10.15625 5.835938 -9.828125 6.296875 -9.609375 C 6.753906 -9.398438 7.460938 -9.191406 8.421875 -8.984375 C 9.523438 -8.703125 10.425781 -8.421875 11.125 -8.140625 C 11.820312 -7.859375 12.429688 -7.410156 12.953125 -6.796875 C 13.472656 -6.179688 13.742188 -5.359375 13.765625 -4.328125 C 13.765625 -3.453125 13.519531 -2.671875 13.03125 -1.984375 C 12.539062 -1.304688 11.835938 -0.769531 10.921875 -0.375 C 10.003906 0.0195312 8.9375 0.21875 7.71875 0.21875 Z M 7.71875 0.21875 "/></g></g></g></svg>