<svg xmlns="http://www.w3.org/2000/svg" height="800" width="1200" viewBox="-211.65 -321.5 1834.3 1929"><g fill-rule="evenodd" fill="none"><path d="M0 0h1411v1286H0z"/><path fill="#498BFA" d="M710.9 703.581c114.306 0 206.97-92.648 206.97-206.935 0-114.288-92.664-206.936-206.97-206.936-114.308 0-206.971 92.648-206.971 206.936 0 114.287 92.663 206.935 206.97 206.935z"/><path fill="#498BFA" d="M710.9 703.581c114.306 0 206.97-92.648 206.97-206.935 0-114.288-92.664-206.936-206.97-206.936-114.308 0-206.971 92.648-206.971 206.936 0 114.287 92.663 206.935 206.97 206.935z"/><path fill="#498BFA" d="M710.9 703.581c114.306 0 206.97-92.648 206.97-206.935 0-114.288-92.664-206.936-206.97-206.936-114.308 0-206.971 92.648-206.971 206.936 0 114.287 92.663 206.935 206.97 206.935z"/><path fill="#FFF" d="M759.54 404.548v123.618c0 25.606-20.746 47.074-46.34 47.948 0 0-1.765.064-1.92.064-.248 0-2.224-.072-2.224-.072-25.822-.87-46.755-22.526-46.755-48.362V404.548h-30.295v122.677c0 43.567 35.319 78.808 78.884 78.714l.39-.001c43.349 0 78.49-35.31 78.49-78.89v-122.5z"/><path fill="#000" d="M369.322 993.953c-11.58 0-22.136-1.736-31.667-5.209-9.53-3.472-17.726-8.636-24.585-15.492-6.858-6.856-12.158-15.359-15.9-25.51-3.74-10.15-5.611-21.813-5.611-34.99V804.039h21.11v107.377c0 20.3 5.033 35.882 15.099 46.744 10.066 10.863 24.095 16.294 42.088 16.294 17.28 0 30.998-5.164 41.153-15.493 10.155-10.328 15.232-25.73 15.232-46.21V804.04h21.11v107.11c0 13.712-1.87 25.731-5.61 36.06-3.742 10.328-9.042 18.964-15.9 25.91-6.86 6.944-15.055 12.153-24.586 15.625-9.53 3.472-20.175 5.209-31.933 5.209zm191.515-7.212c-11.402-4.986-21.29-11.797-29.662-20.434-8.374-8.637-14.92-18.831-19.642-30.584-4.72-11.753-7.081-24.307-7.081-37.662 0-13.712 2.36-26.177 7.081-37.93 4.721-11.752 11.268-22.036 19.642-30.85 8.373-8.815 18.35-15.76 29.929-20.835 11.58-5.075 24.228-7.613 37.946-7.613 8.551 0 16.256.713 23.115 2.137 6.86 1.425 13.228 3.428 19.107 6.01s11.313 5.698 16.3 9.349a140.982 140.982 0 0114.431 12.153l-14.43 15.493c-8.017-7.48-16.613-13.623-25.788-18.43-9.174-4.809-20.175-7.213-33.002-7.213-10.333 0-19.908 1.959-28.727 5.877-8.818 3.917-16.479 9.348-22.981 16.293-6.503 6.945-11.58 15.092-15.232 24.44-3.653 9.35-5.479 19.366-5.479 30.05 0 11.397 1.826 21.503 5.479 30.851 3.652 9.35 8.729 17.496 15.232 24.44 6.502 6.946 14.163 12.421 22.981 16.428 8.819 4.007 18.394 6.01 28.727 6.01 12.827 0 23.872-2.36 33.136-7.078 9.264-4.72 18.35-11.353 27.257-19.9l13.896 13.622c-4.81 4.987-9.843 9.483-15.098 13.49a93.64 93.64 0 01-16.97 10.283c-6.056 2.85-12.559 5.075-19.507 6.678-6.948 1.602-14.697 2.404-23.249 2.404-13.54 0-26.01-2.493-37.411-7.48zm261.484 7.479c-14.252 0-27.213-2.582-38.882-7.746-11.669-5.164-21.69-12.154-30.063-20.968-8.373-8.815-14.83-19.054-19.374-30.718-4.542-11.664-6.814-23.906-6.814-36.727v-.534c0-12.822 2.316-25.109 6.948-36.861 4.632-11.753 11.134-22.037 19.508-30.851 8.373-8.815 18.438-15.849 30.196-21.102 11.758-5.253 24.763-7.88 39.015-7.88 14.253 0 27.213 2.582 38.882 7.746 11.669 5.165 21.69 12.154 30.063 20.968 8.373 8.815 14.83 19.054 19.374 30.718 4.543 11.664 6.814 23.906 6.814 36.727.178.178.178.356 0 .535 0 12.82-2.316 25.108-6.948 36.86-4.632 11.753-11.134 22.037-19.507 30.852-8.374 8.814-18.439 15.848-30.197 21.101-11.758 5.253-24.763 7.88-39.015 7.88zm-.665-19.5c10.689 0 20.531-2.002 29.528-6.01 8.997-4.006 16.702-9.481 23.115-16.426 6.414-6.945 11.446-15.047 15.099-24.307 3.652-9.26 5.478-19.232 5.478-29.916v-.534c0-10.685-1.826-20.701-5.478-30.05-3.653-9.349-8.774-17.496-15.366-24.44-6.592-6.945-14.386-12.466-23.382-16.561-8.997-4.096-18.84-6.144-29.529-6.144-10.69 0-20.532 2.004-29.529 6.01-8.996 4.007-16.701 9.482-23.115 16.427-6.413 6.945-11.446 15.047-15.098 24.307-3.652 9.26-5.478 19.232-5.478 29.916v.535c0 10.684 1.826 20.7 5.478 30.05 3.652 9.348 8.774 17.495 15.366 24.44 6.591 6.945 14.385 12.465 23.382 16.56 8.997 4.096 18.84 6.144 29.529 6.144zm148.508 2.138l122.254-153.855H975.373V804.04h145.905v14.156L999.958 972.05h121.32v18.964H971.365z"/></g></svg>