<?xml version="1.0" encoding="UTF-8"?>
<svg xmlns="http://www.w3.org/2000/svg" version="1.1" viewBox="0 0 512 512">
  <defs>
    <style>
      .cls-1, .cls-2 {
        fill: #080808;
      }

      .cls-3 {
        fill: #146ef5;
      }

      .cls-3, .cls-2 {
        fill-rule: evenodd;
      }
    </style>
  </defs>
  <!-- Generator: Adobe Illustrator 28.6.0, SVG Export Plug-In . SVG Version: 1.2.0 Build 709)  -->
  <g>
    <g id="Layer_1">
      <g>
        <path class="cls-3" d="M136.82,213.33l-43.66,85.35h-41.01l18.27-35.37h-.82c-15.07,19.57-37.56,32.45-69.61,35.37v-34.88s20.5-1.21,32.55-13.88H0v-36.58h36.58v30.09h.82s14.95-30.09,14.95-30.09h27.67v29.9h.82s15.51-29.9,15.51-29.9h40.47Z"/>
        <path class="cls-1" d="M374.89,289.25h11.78v-67.63h-11.78v67.63Z"/>
        <path class="cls-2" d="M309.94,288.56c2.56,1.06,5.16,1.6,7.81,1.6,4.37,0,8.29-1.06,11.74-3.19,3.45-2.13,6.13-5.06,8.03-8.8,1.9-3.77,2.85-8.04,2.85-12.82s-.98-9.05-2.93-12.82c-1.96-3.77-4.68-6.69-8.16-8.76-3.48-2.1-7.44-3.14-11.87-3.11-2.82,0-5.52.55-8.11,1.64-2.59,1.09-4.75,2.65-6.47,4.66-.13.15-.26.31-.39.46v-25.76h-11.83v67.59h11.74l-.02-6.31c.3.37.63.74.97,1.09,1.87,1.93,4.09,3.44,6.65,4.53ZM322.02,277.64c-1.93,1.18-4.13,1.77-6.6,1.77s-4.69-.6-6.73-1.81c-2.04-1.24-3.67-2.92-4.88-5.05-1.18-2.13-1.77-4.55-1.77-7.25-.03-2.7.55-5.12,1.73-7.25,1.21-2.16,2.83-3.83,4.88-5.01,2.04-1.21,4.3-1.8,6.78-1.77,2.47-.03,4.68.55,6.6,1.73,1.96,1.15,3.45,2.81,4.49,4.96,1.06,2.13,1.6,4.57,1.6,7.34s-.53,5.21-1.6,7.34c-1.04,2.13-2.53,3.8-4.49,5.01Z"/>
        <path class="cls-1" d="M153.89,225.72h13.47l12.05,43.99,12.81-43.99h11.22l13.9,43.11,11.57-43.11h12.34l-18.21,63.53h-11.61l-14.13-42.11-12.97,42.11h-11.74l-18.69-63.53Z"/>
        <path class="cls-2" d="M261.13,290.37c-4.69.03-8.92-1.01-12.69-3.11-3.74-2.13-6.69-5.08-8.85-8.85-2.13-3.77-3.19-8.07-3.19-12.9s1.09-8.93,3.28-12.73c2.19-3.8,5.15-6.76,8.89-8.89,3.74-2.13,7.91-3.19,12.52-3.19,5.18,0,9.71,1.15,13.59,3.45,3.91,2.3,6.83,5.57,8.76,9.8,1.96,4.2,2.66,9.02,2.11,14.46h-36.97c.1,2.17.64,4.14,1.62,5.91,1.09,1.96,2.62,3.48,4.57,4.57,1.96,1.09,4.14,1.64,6.56,1.64,1.84-.03,3.55-.35,5.14-.95,1.58-.63,2.92-1.48,4.01-2.55,1.12-1.06,1.91-2.27,2.37-3.63h12.34c-.75,3.31-2.24,6.26-4.49,8.85-2.24,2.56-5.06,4.56-8.46,6-3.4,1.44-7.11,2.14-11.13,2.11ZM250.25,256.54c-.69,1.2-1.17,2.5-1.43,3.88h24.5c-.18-1.75-.72-3.35-1.62-4.79-1.04-1.7-2.45-3.01-4.23-3.93-1.78-.95-3.8-1.42-6.04-1.42-2.39,0-4.56.55-6.52,1.64-1.96,1.09-3.51,2.63-4.66,4.62Z"/>
        <path class="cls-1" d="M349.04,241.69c0-3.86.88-7.28,2.63-10.27,1.76-3.02,4.21-5.37,7.38-7.03,3.19-1.7,6.92-2.58,11.18-2.63v10.49c-1.99.03-3.68.45-5.09,1.25-1.38.78-2.45,1.91-3.19,3.41-.69,1.38-1.06,2.97-1.12,4.79h9.14v9.97h-9.15v37.59h-11.78v-37.59h-7.6v-9.97h7.6Z"/>
        <path class="cls-2" d="M416.62,290.29c-4.8,0-9.11-1.05-12.9-3.15-3.77-2.13-6.73-5.06-8.89-8.8-2.13-3.77-3.19-8.04-3.19-12.82s1.06-9.09,3.19-12.86c2.16-3.8,5.12-6.75,8.89-8.85,3.8-2.1,8.1-3.15,12.9-3.15s9.15,1.05,12.95,3.15c3.83,2.1,6.8,5.04,8.93,8.8,2.13,3.77,3.21,8.07,3.24,12.9-.03,4.78-1.11,9.05-3.24,12.82-2.1,3.74-5.06,6.67-8.89,8.8-3.83,2.1-8.16,3.15-12.99,3.15ZM416.62,279.46c2.53,0,4.78-.58,6.73-1.73,1.96-1.18,3.47-2.82,4.53-4.92,1.06-2.13,1.6-4.56,1.6-7.29s-.53-5.21-1.6-7.34c-1.06-2.13-2.57-3.77-4.53-4.92-1.96-1.18-4.2-1.77-6.73-1.77s-4.73.59-6.69,1.77c-1.93,1.15-3.42,2.79-4.49,4.92-1.06,2.13-1.58,4.57-1.55,7.34,0,2.73.53,5.16,1.6,7.29,1.09,2.1,2.59,3.74,4.49,4.92,1.93,1.15,4.14,1.73,6.65,1.73Z"/>
        <path class="cls-1" d="M454.47,241.69h-13.12l14.2,47.56h11.48l9.34-30.38,10.08,30.38h11.31l14.24-47.56h-11.87l-8.08,29.6-8.93-29.6h-11.48l-8.88,30.26-8.29-30.26Z"/>
      </g>
    </g>
  </g>
</svg>