<svg clip-rule="evenodd" fill-rule="evenodd" stroke-linejoin="round" stroke-miterlimit="2" viewBox="0 0 560 400" xmlns="http://www.w3.org/2000/svg"><g transform="matrix(4.63032 0 0 4.63032 30 156.012)"><path d="m28.856.5-9.207 18h-8.649l3.853-7.46h-.172c-3.179 4.127-7.923 6.844-14.681 7.46v-7.357s4.323-.255 6.865-2.927h-6.865v-7.716h7.716v6.346l.173-.001 3.153-6.345h5.835v6.306h.173l3.271-6.306z" fill="#146ef5"/><path d="m79.066 16.513v-14.263h2.485v14.263zm-13.698-.145c-.541-.231-1.008-.55-1.402-.956-.073-.075-.141-.152-.205-.23l.005 1.331h-2.476v-14.254h2.494v5.432c.026-.033.054-.066.082-.098.364-.425.819-.752 1.365-.983s1.117-.346 1.711-.346c.935-.006 1.769.212 2.503.655.735.437 1.308 1.053 1.721 1.848.412.795.618 1.696.618 2.704 0 1.007-.2 1.908-.6 2.703-.401.789-.965 1.408-1.693 1.857s-1.554.673-2.476.673c-.558 0-1.107-.112-1.647-.336zm2.548-2.303c.413-.255.728-.607.947-1.056.224-.449.337-.965.337-1.548 0-.582-.113-1.098-.337-1.547-.219-.455-.534-.804-.947-1.047-.406-.248-.871-.37-1.393-.364-.521-.006-.998.119-1.429.373-.43.249-.773.601-1.028 1.056-.249.449-.37.959-.364 1.529 0 .571.124 1.081.373 1.53.255.449.598.804 1.028 1.065.431.254.905.382 1.42.382.522 0 .987-.124 1.393-.373zm-35.46-10.95h2.84l2.541 9.277 2.702-9.277h2.367l2.931 9.091 2.439-9.091h2.603l-3.841 13.398h-2.448l-2.981-8.881-2.736 8.881h-2.475zm22.617 13.635c-.989.006-1.881-.213-2.676-.655-.789-.45-1.411-1.072-1.866-1.866-.449-.795-.674-1.703-.674-2.722 0-.989.231-1.884.692-2.685s1.086-1.426 1.875-1.875 1.669-.674 2.64-.674c1.092 0 2.048.243 2.867.728.825.486 1.441 1.175 1.848 2.067.412.886.561 1.902.446 3.049h-7.797c.022.457.136.872.342 1.247.231.412.552.734.965.965.413.23.874.346 1.383.346.389-.007.75-.073 1.084-.201.333-.133.615-.312.846-.537.237-.224.404-.479.501-.764h2.603c-.158.698-.473 1.32-.947 1.866-.473.54-1.068.961-1.784 1.265-.716.303-1.499.452-2.348.446zm-2.294-7.136c-.145.253-.246.526-.302.819h5.168c-.037-.37-.152-.706-.342-1.01-.219-.358-.516-.635-.892-.829-.376-.2-.801-.3-1.274-.3-.504 0-.962.115-1.375.346-.412.23-.74.555-.983.974zm20.835-3.131c0-.814.185-1.536.555-2.167.37-.637.889-1.132 1.557-1.483.673-.358 1.459-.544 2.357-.556v2.212c-.418.006-.776.094-1.074.264-.291.164-.516.404-.673.719-.146.291-.224.627-.235 1.011h1.928v2.102h-1.93v7.928h-2.485v-7.928h-1.602v-2.102zm14.254 10.249c-1.013 0-1.921-.222-2.722-.665-.794-.449-1.419-1.068-1.875-1.857-.449-.795-.673-1.696-.673-2.703 0-1.013.224-1.918.673-2.713.456-.801 1.081-1.422 1.875-1.865.801-.443 1.709-.665 2.722-.665 1.019 0 1.93.222 2.731.665.807.443 1.435 1.061 1.884 1.856s.676 1.703.682 2.722c-.006 1.007-.233 1.908-.682 2.703-.443.789-1.068 1.408-1.875 1.857-.807.443-1.721.665-2.74.665zm0-2.285c.534 0 1.007-.121 1.42-.364.413-.249.731-.595.956-1.038.224-.449.336-.962.336-1.538 0-.583-.112-1.098-.336-1.547-.225-.449-.543-.795-.956-1.038-.413-.249-.886-.373-1.42-.373-.528 0-.998.124-1.411.373-.406.243-.722.589-.947 1.038-.224.449-.333.964-.327 1.547 0 .576.112 1.089.337 1.538.23.443.546.789.946 1.038.407.243.874.364 1.402.364zm7.983-7.964 1.749 6.381 1.873-6.381h2.421l1.883 6.243 1.704-6.243h2.503l-3.004 10.03h-2.385l-2.126-6.406-1.97 6.406h-2.421l-2.994-10.03z"/></g></svg>