<svg xmlns="http://www.w3.org/2000/svg" xmlns:xlink="http://www.w3.org/1999/xlink" width="500" zoomAndPan="magnify" viewBox="0 0 375 374.999991" height="500" preserveAspectRatio="xMidYMid meet" version="1.2"><g id="18eea55b92"><path style=" stroke:none;fill-rule:nonzero;fill:#21759b;fill-opacity:1;" d="M 101.671875 187.621094 C 101.671875 221.628906 121.421875 251.015625 150.066406 264.941406 L 109.105469 152.660156 C 106.648438 158.160156 104.796875 163.855469 103.542969 169.746094 C 102.289062 175.640625 101.667969 181.597656 101.671875 187.621094 Z M 245.503906 183.289062 C 245.503906 172.667969 241.691406 165.316406 238.421875 159.59375 C 234.070312 152.515625 229.988281 146.523438 229.988281 139.445312 C 229.988281 131.550781 235.976562 124.199219 244.410156 124.199219 C 244.789062 124.199219 245.152344 124.246094 245.523438 124.265625 C 230.246094 110.261719 209.890625 101.714844 187.539062 101.714844 C 157.539062 101.714844 131.148438 117.113281 115.792969 140.4375 C 117.808594 140.496094 119.707031 140.539062 121.320312 140.539062 C 130.300781 140.539062 144.203125 139.449219 144.203125 139.449219 C 148.832031 139.175781 149.378906 145.980469 144.753906 146.527344 C 144.753906 146.527344 140.101562 147.074219 134.925781 147.347656 L 166.195312 240.402344 L 184.988281 184.015625 L 171.609375 147.34375 C 166.984375 147.070312 162.605469 146.523438 162.605469 146.523438 C 157.976562 146.253906 158.519531 139.171875 163.148438 139.445312 C 163.148438 139.445312 177.328125 140.535156 185.765625 140.535156 C 194.746094 140.535156 208.648438 139.445312 208.648438 139.445312 C 213.28125 139.171875 213.824219 145.976562 209.199219 146.523438 C 209.199219 146.523438 204.539062 147.070312 199.371094 147.34375 L 230.402344 239.695312 L 238.964844 211.058594 C 242.679688 199.175781 245.503906 190.640625 245.503906 183.289062 Z M 245.503906 183.289062 "/><path style=" stroke:none;fill-rule:nonzero;fill:#21759b;fill-opacity:1;" d="M 189.042969 195.136719 L 163.28125 270.039062 C 171.199219 272.375 179.285156 273.539062 187.539062 273.539062 C 197.535156 273.539062 207.125 271.808594 216.050781 268.671875 C 215.8125 268.292969 215.609375 267.898438 215.441406 267.488281 Z M 262.882812 146.402344 C 263.25 149.140625 263.460938 152.078125 263.460938 155.238281 C 263.460938 163.957031 261.832031 173.757812 256.929688 186.011719 L 230.703125 261.882812 C 256.230469 246.988281 273.398438 219.320312 273.398438 187.625 C 273.402344 172.6875 269.589844 158.640625 262.882812 146.402344 Z M 262.882812 146.402344 "/><path style=" stroke:none;fill-rule:nonzero;fill:#21759b;fill-opacity:1;" d="M 187.539062 87.476562 C 132.347656 87.476562 87.445312 132.402344 87.445312 187.621094 C 87.445312 242.847656 132.347656 287.773438 187.539062 287.773438 C 242.726562 287.773438 287.636719 242.847656 287.636719 187.621094 C 287.632812 132.402344 242.726562 87.476562 187.539062 87.476562 Z M 187.539062 283.183594 C 134.878906 283.183594 92.03125 240.3125 92.03125 187.621094 C 92.03125 134.933594 134.875 92.070312 187.539062 92.070312 C 240.195312 92.070312 283.035156 134.933594 283.035156 187.621094 C 283.035156 240.3125 240.195312 283.183594 187.539062 283.183594 Z M 187.539062 283.183594 "/></g></svg>