<svg xmlns="http://www.w3.org/2000/svg" xmlns:xlink="http://www.w3.org/1999/xlink" width="500" zoomAndPan="magnify" viewBox="0 0 375 374.999991" height="500" preserveAspectRatio="xMidYMid meet" version="1.2"><defs><clipPath id="f0a330ad53"><path d="M 60.84375 60.84375 L 314.34375 60.84375 L 314.34375 314.34375 L 60.84375 314.34375 Z M 60.84375 60.84375 "/></clipPath></defs><g id="195906999f"><g clip-rule="nonzero" clip-path="url(#f0a330ad53)"><path style=" stroke:none;fill-rule:evenodd;fill:#00759d;fill-opacity:1;" d="M 60.84375 187.589844 C 60.84375 237.757812 89.996094 281.117188 132.277344 301.660156 L 71.8125 136.007812 C 64.785156 151.765625 60.84375 169.207031 60.84375 187.589844 Z M 273.15625 181.195312 C 273.15625 165.523438 267.523438 154.679688 262.707031 146.242188 C 256.28125 135.792969 250.253906 126.953125 250.253906 116.511719 C 250.253906 104.855469 259.085938 94.011719 271.539062 94.011719 C 272.101562 94.011719 272.632812 94.082031 273.179688 94.113281 C 250.632812 73.453125 220.585938 60.84375 187.589844 60.84375 C 143.304688 60.84375 104.351562 83.5625 81.6875 117.96875 C 84.664062 118.0625 87.46875 118.117188 89.847656 118.117188 C 103.101562 118.117188 123.625 116.511719 123.625 116.511719 C 130.457031 116.105469 131.261719 126.152344 124.433594 126.953125 C 124.433594 126.953125 117.566406 127.761719 109.929688 128.164062 L 156.082031 265.453125 L 183.828125 182.265625 L 164.085938 128.164062 C 157.253906 127.761719 150.785156 126.953125 150.785156 126.953125 C 143.953125 126.546875 144.753906 116.105469 151.589844 116.511719 C 151.589844 116.511719 172.523438 118.117188 184.976562 118.117188 C 198.230469 118.117188 218.753906 116.511719 218.753906 116.511719 C 225.59375 116.105469 226.390625 126.152344 219.5625 126.953125 C 219.5625 126.953125 212.6875 127.761719 205.058594 128.164062 L 250.863281 264.410156 L 263.515625 222.167969 C 268.980469 204.628906 273.15625 192.039062 273.15625 181.195312 Z M 298.8125 126.78125 C 299.359375 130.820312 299.671875 135.144531 299.671875 139.8125 C 299.671875 152.667969 297.261719 167.128906 290.027344 185.214844 L 251.3125 297.144531 C 289 275.175781 314.339844 234.347656 314.339844 187.589844 C 314.339844 165.550781 308.710938 144.835938 298.8125 126.78125 Z M 189.816406 198.675781 L 151.78125 309.179688 C 163.140625 312.523438 175.152344 314.347656 187.589844 314.347656 C 202.347656 314.347656 216.503906 311.796875 229.679688 307.160156 C 229.347656 306.613281 229.03125 306.042969 228.777344 305.417969 Z M 189.816406 198.675781 "/></g></g></svg>