<svg xmlns="http://www.w3.org/2000/svg" xmlns:xlink="http://www.w3.org/1999/xlink" width="500" zoomAndPan="magnify" viewBox="0 0 375 374.999991" height="500" preserveAspectRatio="xMidYMid meet" version="1.2"><defs><clipPath id="2839a1664e"><path d="M 68.148438 68.148438 L 306.648438 68.148438 L 306.648438 306.648438 L 68.148438 306.648438 Z M 68.148438 68.148438 "/></clipPath></defs><g id="82fec93848"><g clip-rule="nonzero" clip-path="url(#2839a1664e)"><path style=" stroke:none;fill-rule:evenodd;fill:#00759d;fill-opacity:1;" d="M 68.148438 187.394531 C 68.148438 234.59375 95.574219 275.386719 135.355469 294.714844 L 78.46875 138.863281 C 71.859375 153.6875 68.148438 170.101562 68.148438 187.394531 Z M 267.898438 181.378906 C 267.898438 166.636719 262.597656 156.433594 258.066406 148.496094 C 252.023438 138.664062 246.351562 130.34375 246.351562 120.523438 C 246.351562 109.558594 254.660156 99.355469 266.378906 99.355469 C 266.90625 99.355469 267.40625 99.421875 267.921875 99.449219 C 246.707031 80.011719 218.4375 68.148438 187.394531 68.148438 C 145.730469 68.148438 109.082031 89.523438 87.757812 121.894531 C 90.5625 121.984375 93.199219 122.035156 95.433594 122.035156 C 107.90625 122.035156 127.214844 120.523438 127.214844 120.523438 C 133.640625 120.140625 134.402344 129.59375 127.976562 130.34375 C 127.976562 130.34375 121.515625 131.105469 114.328125 131.484375 L 157.753906 260.652344 L 183.855469 182.382812 L 165.28125 131.484375 C 158.855469 131.105469 152.765625 130.34375 152.765625 130.34375 C 146.339844 129.964844 147.09375 120.140625 153.527344 120.523438 C 153.527344 120.523438 173.21875 122.035156 184.933594 122.035156 C 197.40625 122.035156 216.714844 120.523438 216.714844 120.523438 C 223.148438 120.140625 223.902344 129.59375 217.476562 130.34375 C 217.476562 130.34375 211.007812 131.105469 203.828125 131.484375 L 246.925781 259.667969 L 258.828125 219.925781 C 263.96875 203.425781 267.898438 191.582031 267.898438 181.378906 Z M 292.039062 130.183594 C 292.550781 133.984375 292.84375 138.054688 292.84375 142.445312 C 292.84375 154.542969 290.578125 168.144531 283.773438 185.160156 L 247.347656 290.46875 C 282.804688 269.800781 306.648438 231.386719 306.648438 187.394531 C 306.648438 166.660156 301.347656 147.167969 292.039062 130.183594 Z M 189.488281 197.824219 L 153.707031 301.792969 C 164.394531 304.9375 175.691406 306.652344 187.394531 306.652344 C 201.28125 306.652344 214.597656 304.25 226.996094 299.890625 C 226.679688 299.378906 226.382812 298.839844 226.144531 298.25 Z M 189.488281 197.824219 "/></g></g></svg>